<?xml version="1.0" encoding="UTF-8" standalone="no"?><!DOCTYPE svg PUBLIC "-//W3C//DTD SVG 1.1//EN" "http://www.w3.org/Graphics/SVG/1.1/DTD/svg11.dtd"><svg width="100%" height="100%" viewBox="0 0 1250 1667" version="1.1" xmlns="http://www.w3.org/2000/svg" xmlns:xlink="http://www.w3.org/1999/xlink" xml:space="preserve" xmlns:serif="http://www.serif.com/" style="fill-rule:evenodd;clip-rule:evenodd;"><g><rect x="0" y="0" width="1250" height="1666.67" style="fill:#fff;"/><path d="M-1.038,-3.092l312.501,-0l-160.417,160.417l-152.084,152.083l0,-312.5Z" style="fill:#15304f;fill-rule:nonzero;"/><path d="M-104.167,414.012l396.838,-418.275l103.824,5.136l-400.549,413.035l-100.113,0.104Z" style="fill:url(#_Linear1);fill-rule:nonzero;"/><path d="M37.5,318.05l235.417,-223.24l85.471,-0l-220.888,212.029l-100,11.211Z" style="fill:#163252;fill-rule:nonzero;"/><path d="M1255.87,1684.64l-312.5,-0l312.5,-312.5l-0,312.5Z" style="fill:#15304f;fill-rule:nonzero;"/><path d="M1359,1267.54l-396.838,418.275l-103.825,-5.134l400.55,-413.033l100.113,-0.109Z" style="fill:url(#_Linear2);fill-rule:nonzero;"/><path d="M1217.33,1363.5l-235.416,223.242l-85.471,-0l220.887,-212.029l100,-11.213Z" style="fill:#163252;fill-rule:nonzero;"/><rect x="16.667" y="16.667" width="1216.67" height="1633.33" style="fill:none;fill-rule:nonzero;stroke:#c6a24d;stroke-width:6.25px;"/><path d="M482.9,1320.83l0,-21.212l7.563,-0c1.641,-0 3.008,0.283 4.091,0.85c1.092,0.567 1.904,1.35 2.442,2.35c0.542,0.996 0.808,2.146 0.808,3.45c0,1.3 -0.271,2.442 -0.817,3.429c-0.537,0.979 -1.354,1.742 -2.445,2.288c-1.084,0.545 -2.446,0.82 -4.092,0.82l-5.725,0l0,-2.758l5.438,0c1.033,0 1.879,-0.146 2.525,-0.446c0.658,-0.296 1.137,-0.725 1.441,-1.292c0.304,-0.566 0.454,-1.245 0.454,-2.041c0,-0.8 -0.154,-1.496 -0.466,-2.084c-0.304,-0.587 -0.784,-1.033 -1.438,-1.345c-0.65,-0.317 -1.504,-0.475 -2.558,-0.475l-4.021,-0l0,18.466l-3.2,0Zm10.471,-9.571l5.242,9.571l-3.646,0l-5.138,-9.571l3.542,0Zm14.737,9.892c-1.566,0 -2.916,-0.333 -4.05,-1.004c-1.125,-0.675 -1.995,-1.625 -2.608,-2.85c-0.608,-1.229 -0.912,-2.667 -0.912,-4.317c-0,-1.629 0.304,-3.066 0.912,-4.308c0.613,-1.246 1.471,-2.213 2.567,-2.913c1.104,-0.695 2.396,-1.045 3.875,-1.045c0.896,-0 1.766,0.15 2.608,0.445c0.842,0.296 1.6,0.763 2.271,1.4c0.667,0.634 1.196,1.459 1.583,2.475c0.388,1.009 0.579,2.234 0.579,3.675l0,1.1l-12.645,0l-0,-2.32l9.612,-0c0,-0.817 -0.167,-1.538 -0.496,-2.167c-0.333,-0.633 -0.8,-1.133 -1.4,-1.5c-0.596,-0.367 -1.291,-0.55 -2.091,-0.55c-0.871,-0 -1.63,0.212 -2.28,0.642c-0.641,0.42 -1.141,0.975 -1.491,1.658c-0.346,0.675 -0.517,1.412 -0.517,2.204l0,1.813c0,1.066 0.183,1.97 0.558,2.716c0.38,0.746 0.909,1.313 1.584,1.709c0.679,0.387 1.466,0.579 2.371,0.579c0.587,-0 1.125,-0.084 1.608,-0.25c0.483,-0.171 0.9,-0.425 1.254,-0.767c0.35,-0.337 0.621,-0.754 0.804,-1.25l2.934,0.525c-0.234,0.867 -0.659,1.621 -1.263,2.271c-0.604,0.642 -1.358,1.142 -2.271,1.5c-0.904,0.354 -1.937,0.529 -3.096,0.529Zm16.934,5.975c-1.267,0 -2.354,-0.162 -3.263,-0.496c-0.904,-0.329 -1.646,-0.771 -2.216,-1.316c-0.575,-0.546 -1.005,-1.142 -1.288,-1.792l2.663,-1.096c0.187,0.304 0.437,0.625 0.745,0.963c0.321,0.346 0.746,0.637 1.288,0.879c0.542,0.242 1.246,0.362 2.1,0.362c1.175,0 2.146,-0.283 2.912,-0.858c0.767,-0.567 1.15,-1.471 1.15,-2.712l0,-3.13l-0.2,0c-0.183,0.338 -0.454,0.713 -0.808,1.13c-0.342,0.412 -0.821,0.774 -1.429,1.075c-0.604,0.304 -1.396,0.458 -2.371,0.458c-1.254,-0 -2.387,-0.296 -3.396,-0.879c-1,-0.596 -1.796,-1.471 -2.383,-2.621c-0.579,-1.163 -0.871,-2.588 -0.871,-4.279c0,-1.692 0.288,-3.142 0.863,-4.35c0.579,-1.209 1.37,-2.134 2.379,-2.775c1.008,-0.65 2.154,-0.975 3.429,-0.975c0.987,-0 1.787,0.166 2.392,0.495c0.608,0.325 1.083,0.705 1.42,1.142c0.346,0.433 0.613,0.817 0.796,1.15l0.229,0l0,-2.579l3.034,-0l-0,16.262c-0,1.367 -0.317,2.488 -0.95,3.363c-0.638,0.879 -1.496,1.529 -2.579,1.95c-1.08,0.421 -2.296,0.629 -3.646,0.629Zm-0.034,-9.104c0.892,-0 1.646,-0.204 2.259,-0.621c0.62,-0.421 1.091,-1.021 1.408,-1.8c0.325,-0.787 0.487,-1.729 0.487,-2.829c0,-1.071 -0.158,-2.013 -0.475,-2.829c-0.32,-0.813 -0.783,-1.45 -1.4,-1.904c-0.612,-0.463 -1.375,-0.696 -2.279,-0.696c-0.933,-0 -1.708,0.241 -2.329,0.729c-0.621,0.475 -1.092,1.125 -1.408,1.946c-0.313,0.821 -0.467,1.737 -0.467,2.754c0,1.042 0.158,1.958 0.475,2.746c0.321,0.787 0.788,1.4 1.408,1.841c0.63,0.442 1.405,0.663 2.321,0.663Zm11.363,2.808l-0,-15.908l3.096,-0l-0,15.908l-3.096,0Zm1.562,-18.362c-0.537,-0 -1,-0.179 -1.387,-0.542c-0.379,-0.362 -0.567,-0.8 -0.567,-1.304c0,-0.508 0.188,-0.946 0.567,-1.304c0.387,-0.367 0.85,-0.55 1.387,-0.55c0.542,-0 1,0.183 1.379,0.55c0.388,0.358 0.58,0.796 0.58,1.304c-0,0.504 -0.192,0.942 -0.58,1.304c-0.379,0.363 -0.837,0.542 -1.379,0.542Zm17.621,6.337l-2.804,0.496c-0.117,-0.358 -0.304,-0.7 -0.558,-1.025c-0.25,-0.325 -0.588,-0.587 -1.017,-0.796c-0.429,-0.208 -0.963,-0.312 -1.604,-0.312c-0.879,-0 -1.609,0.196 -2.196,0.591c-0.588,0.388 -0.883,0.888 -0.883,1.5c-0,0.534 0.2,0.963 0.591,1.288c0.396,0.321 1.029,0.587 1.904,0.796l2.53,0.579c1.462,0.337 2.554,0.862 3.275,1.567c0.716,0.704 1.075,1.616 1.075,2.741c-0,0.954 -0.275,1.804 -0.83,2.55c-0.545,0.738 -1.308,1.317 -2.287,1.738c-0.975,0.425 -2.104,0.633 -3.388,0.633c-1.783,0 -3.233,-0.379 -4.362,-1.137c-1.125,-0.767 -1.813,-1.855 -2.071,-3.263l2.996,-0.458c0.183,0.779 0.567,1.371 1.15,1.771c0.579,0.395 1.333,0.591 2.267,0.591c1.016,0 1.825,-0.212 2.433,-0.633c0.608,-0.425 0.913,-0.95 0.913,-1.563c-0,-0.495 -0.188,-0.916 -0.559,-1.254c-0.367,-0.337 -0.929,-0.591 -1.692,-0.766l-2.691,-0.588c-1.484,-0.341 -2.584,-0.879 -3.292,-1.616c-0.704,-0.742 -1.058,-1.675 -1.058,-2.809c-0,-0.937 0.262,-1.758 0.787,-2.462c0.525,-0.709 1.25,-1.255 2.175,-1.65c0.925,-0.4 1.988,-0.6 3.18,-0.6c1.72,-0 3.075,0.375 4.062,1.12c0.988,0.738 1.638,1.73 1.954,2.971Zm11.146,-3.883l0,2.483l-8.692,0l0,-2.483l8.692,0Zm-6.362,-3.812l3.1,-0l-0,15.05c-0,0.6 0.087,1.054 0.266,1.358c0.179,0.296 0.413,0.5 0.696,0.608c0.288,0.104 0.604,0.154 0.942,0.154c0.25,0 0.466,-0.016 0.654,-0.05c0.183,-0.033 0.329,-0.062 0.433,-0.083l0.559,2.558c-0.18,0.071 -0.434,0.138 -0.767,0.209c-0.329,0.075 -0.746,0.116 -1.242,0.125c-0.816,0.012 -1.575,-0.134 -2.279,-0.438c-0.704,-0.304 -1.275,-0.771 -1.708,-1.408c-0.438,-0.633 -0.654,-1.433 -0.654,-2.392l-0,-15.691Zm16.47,20.041c-1.566,0 -2.916,-0.333 -4.05,-1.004c-1.125,-0.675 -1.995,-1.625 -2.608,-2.85c-0.608,-1.229 -0.913,-2.667 -0.913,-4.317c0,-1.629 0.305,-3.066 0.913,-4.308c0.612,-1.246 1.471,-2.212 2.567,-2.912c1.108,-0.696 2.395,-1.046 3.875,-1.046c0.9,-0 1.766,0.15 2.612,0.446c0.842,0.295 1.596,0.762 2.267,1.4c0.671,0.633 1.196,1.458 1.583,2.475c0.388,1.008 0.579,2.233 0.579,3.675l0,1.1l-12.645,-0l-0,-2.321l9.612,-0c0,-0.817 -0.167,-1.538 -0.496,-2.167c-0.333,-0.633 -0.8,-1.133 -1.4,-1.5c-0.591,-0.367 -1.292,-0.55 -2.091,-0.55c-0.871,0 -1.63,0.213 -2.28,0.642c-0.641,0.421 -1.137,0.975 -1.491,1.658c-0.346,0.675 -0.517,1.413 -0.517,2.204l0,1.813c0,1.066 0.188,1.971 0.558,2.716c0.38,0.746 0.909,1.313 1.588,1.709c0.675,0.387 1.466,0.579 2.371,0.579c0.587,-0 1.121,-0.083 1.604,-0.25c0.483,-0.171 0.9,-0.425 1.254,-0.767c0.35,-0.337 0.621,-0.754 0.808,-1.25l2.93,0.525c-0.234,0.867 -0.655,1.621 -1.263,2.271c-0.6,0.642 -1.358,1.142 -2.267,1.5c-0.908,0.354 -1.937,0.529 -3.1,0.529Zm10.263,-0.321l-0,-15.908l2.996,0l-0,2.525l0.162,0c0.292,-0.854 0.804,-1.529 1.534,-2.017c0.737,-0.5 1.575,-0.745 2.508,-0.745c0.192,-0.001 0.421,0.004 0.683,0.02c0.267,0.013 0.479,0.03 0.629,0.05l0,2.963c-0.12,-0.033 -0.341,-0.071 -0.662,-0.113c-0.317,-0.05 -0.633,-0.075 -0.95,-0.075c-0.733,0 -1.388,0.159 -1.958,0.467c-0.567,0.304 -1.017,0.729 -1.346,1.275c-0.334,0.538 -0.5,1.154 -0.5,1.842l-0,9.716l-3.096,0Zm17.483,0.321c-1.571,0 -2.921,-0.333 -4.05,-1.004c-1.129,-0.675 -1.996,-1.625 -2.612,-2.85c-0.609,-1.229 -0.913,-2.667 -0.913,-4.317c0,-1.629 0.304,-3.066 0.913,-4.308c0.616,-1.246 1.471,-2.213 2.571,-2.913c1.104,-0.695 2.395,-1.045 3.87,-1.045c0.9,-0 1.771,0.15 2.613,0.445c0.841,0.296 1.596,0.763 2.267,1.4c0.67,0.634 1.199,1.459 1.583,2.475c0.387,1.009 0.583,2.234 0.583,3.676l0,1.1l-12.65,-0l0,-2.321l9.613,-0c-0,-0.817 -0.163,-1.538 -0.496,-2.167c-0.334,-0.633 -0.796,-1.133 -1.4,-1.5c-0.592,-0.367 -1.288,-0.55 -2.092,-0.55c-0.871,0 -1.629,0.213 -2.279,0.642c-0.642,0.42 -1.138,0.975 -1.492,1.658c-0.341,0.675 -0.516,1.413 -0.516,2.204l-0,1.813c-0,1.066 0.187,1.971 0.558,2.716c0.383,0.746 0.908,1.313 1.587,1.709c0.675,0.387 1.467,0.579 2.371,0.579c0.588,-0 1.121,-0.083 1.604,-0.25c0.484,-0.171 0.905,-0.425 1.255,-0.767c0.354,-0.337 0.62,-0.754 0.808,-1.25l2.929,0.525c-0.233,0.867 -0.654,1.621 -1.262,2.271c-0.6,0.642 -1.355,1.142 -2.267,1.5c-0.904,0.354 -1.938,0.529 -3.096,0.529Zm16.217,-0.008c-1.288,-0 -2.434,-0.329 -3.442,-0.988c-1,-0.662 -1.787,-1.604 -2.358,-2.825c-0.567,-1.229 -0.85,-2.704 -0.85,-4.425c-0,-1.716 0.287,-3.187 0.858,-4.412c0.579,-1.221 1.375,-2.154 2.383,-2.804c1.009,-0.65 2.15,-0.975 3.43,-0.975c0.987,-0 1.779,0.166 2.379,0.496c0.608,0.325 1.079,0.704 1.408,1.141c0.342,0.434 0.604,0.817 0.788,1.15l0.187,0l0,-7.883l3.096,-0l-0,21.212l-3.025,0l-0,-2.475l-0.258,0c-0.184,0.338 -0.455,0.725 -0.809,1.159c-0.341,0.437 -0.821,0.816 -1.429,1.141c-0.604,0.325 -1.392,0.488 -2.358,0.488Zm0.683,-2.642c0.888,0 1.642,-0.237 2.258,-0.704c0.621,-0.479 1.088,-1.138 1.409,-1.979c0.325,-0.842 0.487,-1.825 0.487,-2.942c0,-1.104 -0.162,-2.071 -0.479,-2.9c-0.317,-0.829 -0.783,-1.475 -1.396,-1.937c-0.616,-0.463 -1.375,-0.696 -2.279,-0.696c-0.933,-0 -1.708,0.241 -2.333,0.729c-0.621,0.483 -1.088,1.142 -1.409,1.975c-0.308,0.837 -0.466,1.779 -0.466,2.829c-0,1.063 0.162,2.021 0.479,2.867c0.317,0.85 0.787,1.525 1.408,2.021c0.629,0.491 1.4,0.737 2.321,0.737Zm26.038,2.65c-1.542,0 -2.867,-0.35 -3.98,-1.046c-1.104,-0.704 -1.954,-1.675 -2.545,-2.912c-0.596,-1.234 -0.892,-2.65 -0.892,-4.246c-0,-1.613 0.304,-3.042 0.912,-4.275c0.609,-1.246 1.463,-2.213 2.567,-2.913c1.108,-0.695 2.408,-1.045 3.908,-1.045c1.209,-0 2.284,0.225 3.23,0.675c0.945,0.441 1.708,1.062 2.287,1.862c0.588,0.8 0.938,1.738 1.05,2.809l-3.017,-0c-0.166,-0.746 -0.545,-1.388 -1.137,-1.93c-0.588,-0.537 -1.375,-0.804 -2.363,-0.804c-0.862,0 -1.62,0.225 -2.266,0.684c-0.646,0.445 -1.146,1.087 -1.504,1.925c-0.359,0.829 -0.538,1.808 -0.538,2.941c0,1.159 0.175,2.163 0.529,3.004c0.35,0.842 0.846,1.496 1.492,1.959c0.646,0.462 1.412,0.691 2.287,0.691c0.588,0 1.117,-0.108 1.596,-0.32c0.484,-0.221 0.888,-0.534 1.213,-0.942c0.329,-0.408 0.562,-0.9 0.691,-1.471l3.017,0c-0.112,1.029 -0.446,1.946 -1.008,2.754c-0.559,0.809 -1.309,1.442 -2.246,1.909c-0.933,0.462 -2.025,0.691 -3.283,0.691Zm16.55,0c-1.492,0 -2.796,-0.341 -3.905,-1.025c-1.112,-0.683 -1.975,-1.641 -2.591,-2.871c-0.613,-1.229 -0.921,-2.662 -0.921,-4.308c-0,-1.65 0.308,-3.092 0.921,-4.329c0.616,-1.233 1.479,-2.196 2.591,-2.879c1.109,-0.684 2.413,-1.025 3.905,-1.025c1.491,-0 2.791,0.341 3.904,1.025c1.112,0.683 1.975,1.646 2.587,2.879c0.617,1.237 0.925,2.679 0.925,4.329c0,1.646 -0.308,3.079 -0.925,4.308c-0.612,1.23 -1.475,2.188 -2.587,2.871c-1.113,0.684 -2.413,1.025 -3.904,1.025Zm0.008,-2.6c0.967,0 1.767,-0.254 2.404,-0.766c0.633,-0.509 1.104,-1.192 1.408,-2.042c0.313,-0.846 0.467,-1.784 0.467,-2.804c0,-1.017 -0.154,-1.95 -0.467,-2.796c-0.304,-0.858 -0.775,-1.546 -1.408,-2.063c-0.637,-0.516 -1.437,-0.775 -2.404,-0.775c-0.975,0 -1.779,0.259 -2.425,0.775c-0.633,0.517 -1.104,1.205 -1.417,2.063c-0.304,0.846 -0.454,1.779 -0.454,2.796c0,1.021 0.15,1.958 0.454,2.804c0.313,0.85 0.784,1.533 1.417,2.042c0.646,0.512 1.45,0.766 2.425,0.766Zm13.958,-7.167l0,9.446l-3.096,0l0,-15.908l2.975,0l0,2.587l0.196,0c0.367,-0.841 0.938,-1.516 1.717,-2.029c0.787,-0.512 1.779,-0.766 2.975,-0.766c1.083,-0 2.033,0.229 2.846,0.683c0.816,0.45 1.45,1.121 1.896,2.008c0.45,0.892 0.675,1.996 0.675,3.304l-0,10.121l-3.096,0l-0,-9.746c-0,-1.154 -0.3,-2.054 -0.904,-2.704c-0.6,-0.654 -1.425,-0.983 -2.475,-0.983c-0.717,-0 -1.355,0.154 -1.917,0.467c-0.55,0.308 -0.988,0.766 -1.313,1.366c-0.316,0.592 -0.479,1.313 -0.479,2.154Zm21.763,-6.462l-0,2.483l-8.692,0l0,-2.483l8.692,-0Zm-6.359,-3.813l3.096,0l0,15.05c0,0.601 0.092,1.055 0.271,1.359c0.179,0.296 0.408,0.5 0.692,0.608c0.291,0.104 0.604,0.154 0.941,0.154c0.25,0 0.467,-0.016 0.655,-0.05c0.187,-0.033 0.333,-0.062 0.433,-0.083l0.562,2.558c-0.179,0.071 -0.437,0.138 -0.766,0.209c-0.334,0.075 -0.746,0.116 -1.246,0.125c-0.813,0.012 -1.571,-0.134 -2.275,-0.438c-0.708,-0.304 -1.275,-0.771 -1.713,-1.408c-0.433,-0.634 -0.65,-1.434 -0.65,-2.392l0,-15.691Zm16.471,20.041c-1.566,0 -2.916,-0.333 -4.05,-1.004c-1.125,-0.675 -1.996,-1.625 -2.612,-2.85c-0.604,-1.229 -0.909,-2.667 -0.909,-4.317c0,-1.629 0.305,-3.066 0.909,-4.308c0.616,-1.246 1.471,-2.213 2.571,-2.913c1.104,-0.695 2.395,-1.045 3.875,-1.045c0.895,-0 1.766,0.15 2.608,0.445c0.842,0.296 1.6,0.763 2.267,1.4c0.67,0.634 1.2,1.459 1.587,2.475c0.388,1.009 0.579,2.234 0.579,3.676l0,1.1l-12.646,-0l0,-2.321l9.613,-0c-0,-0.817 -0.167,-1.538 -0.5,-2.167c-0.329,-0.633 -0.796,-1.133 -1.396,-1.5c-0.596,-0.367 -1.292,-0.55 -2.092,-0.55c-0.87,0 -1.633,0.213 -2.279,0.642c-0.641,0.42 -1.141,0.975 -1.491,1.658c-0.346,0.675 -0.521,1.413 -0.521,2.204l-0,1.813c-0,1.066 0.187,1.971 0.562,2.716c0.379,0.746 0.909,1.313 1.584,1.709c0.675,0.387 1.466,0.579 2.37,0.579c0.588,-0 1.125,-0.083 1.609,-0.25c0.483,-0.171 0.9,-0.425 1.25,-0.767c0.354,-0.337 0.621,-0.754 0.808,-1.25l2.933,0.525c-0.237,0.867 -0.658,1.621 -1.266,2.271c-0.6,0.642 -1.354,1.142 -2.267,1.5c-0.904,0.354 -1.937,0.529 -3.096,0.529Zm13.359,-9.766l-0,9.445l-3.096,0l-0,-15.908l2.971,0l-0,2.588l0.195,-0c0.367,-0.842 0.942,-1.517 1.721,-2.03c0.788,-0.512 1.779,-0.766 2.971,-0.766c1.088,-0 2.033,0.229 2.85,0.683c0.813,0.45 1.446,1.121 1.896,2.008c0.45,0.892 0.671,1.996 0.671,3.305l-0,10.12l-3.096,0l-0,-9.745c-0,-1.155 -0.3,-2.055 -0.9,-2.705c-0.6,-0.654 -1.425,-0.983 -2.475,-0.983c-0.721,0 -1.358,0.154 -1.917,0.467c-0.554,0.308 -0.991,0.766 -1.316,1.366c-0.317,0.592 -0.475,1.313 -0.475,2.154Zm21.762,-6.462l0,2.483l-8.692,0l0,-2.483l8.692,0Zm-6.362,-3.813l3.095,0.001l0,15.05c0,0.6 0.092,1.054 0.271,1.358c0.179,0.296 0.413,0.5 0.696,0.608c0.288,0.104 0.604,0.154 0.942,0.154c0.25,0 0.466,-0.016 0.65,-0.05c0.187,-0.033 0.333,-0.062 0.437,-0.083l0.559,2.558c-0.18,0.071 -0.434,0.138 -0.767,0.209c-0.329,0.075 -0.746,0.116 -1.242,0.125c-0.816,0.012 -1.575,-0.134 -2.279,-0.438c-0.704,-0.304 -1.275,-0.771 -1.708,-1.408c-0.438,-0.633 -0.654,-1.433 -0.654,-2.392l-0,-15.691Zm11.825,19.916c-0.563,0 -1.05,-0.2 -1.459,-0.6c-0.408,-0.408 -0.612,-0.896 -0.612,-1.471c-0,-0.566 0.204,-1.05 0.612,-1.45c0.409,-0.408 0.896,-0.612 1.459,-0.612c0.566,-0 1.054,0.204 1.462,0.612c0.408,0.4 0.613,0.884 0.613,1.45c-0,0.38 -0.1,0.73 -0.292,1.046c-0.188,0.313 -0.433,0.559 -0.746,0.746c-0.312,0.188 -0.654,0.279 -1.037,0.279Zm-0,-11.579c-0.563,0 -1.05,-0.204 -1.459,-0.612c-0.408,-0.405 -0.612,-0.892 -0.612,-1.459c-0,-0.566 0.204,-1.05 0.612,-1.45c0.409,-0.408 0.896,-0.612 1.459,-0.612c0.566,-0 1.054,0.204 1.462,0.612c0.408,0.4 0.613,0.884 0.613,1.45c-0,0.379 -0.1,0.729 -0.292,1.046c-0.188,0.313 -0.433,0.558 -0.746,0.746c-0.312,0.187 -0.654,0.279 -1.037,0.279Z" style="fill:#3a3939;fill-rule:nonzero;"/><path d="M594.796,812.5l-0,-21.212l13.154,-0l0,2.754l-9.954,-0l-0,6.462l9.012,0l0,2.746l-9.012,0l-0,9.25l-3.2,0Zm16.841,0l0,-15.908l3.096,-0l0,15.908l-3.096,0Zm1.563,-18.362c-0.538,-0 -1,-0.18 -1.387,-0.542c-0.38,-0.363 -0.567,-0.8 -0.567,-1.304c-0,-0.509 0.187,-0.946 0.567,-1.305c0.387,-0.366 0.849,-0.549 1.387,-0.549c0.542,-0 1,0.183 1.379,0.549c0.388,0.359 0.579,0.796 0.579,1.305c0,0.504 -0.191,0.941 -0.579,1.304c-0.379,0.362 -0.837,0.542 -1.379,0.542Zm8.8,-2.851l0,21.213l-3.1,0l0,-21.212l3.1,-0Zm11.021,21.533c-1.567,-0 -2.917,-0.333 -4.05,-1.004c-1.125,-0.675 -1.996,-1.625 -2.608,-2.85c-0.609,-1.229 -0.913,-2.667 -0.913,-4.317c0,-1.629 0.304,-3.067 0.913,-4.308c0.612,-1.246 1.47,-2.213 2.566,-2.913c1.104,-0.696 2.396,-1.046 3.875,-1.046c0.896,0 1.767,0.15 2.608,0.446c0.842,0.296 1.601,0.763 2.271,1.4c0.667,0.634 1.196,1.459 1.584,2.475c0.387,1.009 0.579,2.234 0.579,3.675l-0,1.1l-12.646,0l0,-2.321l9.613,0c-0,-0.816 -0.167,-1.537 -0.496,-2.166c-0.334,-0.634 -0.8,-1.134 -1.4,-1.5c-0.596,-0.367 -1.292,-0.55 -2.092,-0.55c-0.871,-0 -1.629,0.212 -2.279,0.641c-0.642,0.421 -1.142,0.975 -1.492,1.659c-0.346,0.675 -0.516,1.412 -0.516,2.204l-0,1.812c-0,1.067 0.183,1.971 0.558,2.717c0.379,0.746 0.908,1.313 1.583,1.708c0.679,0.388 1.467,0.58 2.371,0.58c0.588,-0 1.125,-0.084 1.608,-0.25c0.484,-0.171 0.9,-0.425 1.255,-0.767c0.35,-0.338 0.62,-0.754 0.804,-1.25l2.933,0.525c-0.233,0.867 -0.654,1.621 -1.262,2.271c-0.605,0.641 -1.359,1.141 -2.271,1.5c-0.904,0.354 -1.938,0.529 -3.096,0.529Zm12.304,-0.125c-0.567,-0 -1.054,-0.2 -1.462,-0.6c-0.409,-0.408 -0.613,-0.896 -0.613,-1.471c0,-0.567 0.204,-1.05 0.613,-1.45c0.408,-0.408 0.895,-0.612 1.462,-0.612c0.563,-0 1.05,0.204 1.458,0.612c0.409,0.4 0.613,0.883 0.613,1.45c-0,0.379 -0.1,0.729 -0.292,1.046c-0.187,0.312 -0.433,0.558 -0.746,0.746c-0.308,0.187 -0.654,0.279 -1.033,0.279Zm0,-11.579c-0.567,-0 -1.054,-0.204 -1.462,-0.613c-0.409,-0.404 -0.613,-0.891 -0.613,-1.458c0,-0.567 0.204,-1.05 0.613,-1.45c0.408,-0.408 0.895,-0.613 1.462,-0.613c0.563,0 1.05,0.205 1.458,0.613c0.409,0.4 0.613,0.883 0.613,1.45c-0,0.379 -0.1,0.729 -0.292,1.046c-0.187,0.312 -0.433,0.558 -0.746,0.746c-0.308,0.187 -0.654,0.279 -1.033,0.279Z" style="fill:#3a3939;fill-rule:nonzero;"/><path d="M543.983,895.833l-6.87,0l-0,-21.212l7.087,-0c2.079,-0 3.862,0.425 5.354,1.275c1.492,0.842 2.634,2.054 3.429,3.633c0.8,1.575 1.2,3.463 1.2,5.667c0,2.208 -0.404,4.108 -1.212,5.696c-0.8,1.587 -1.959,2.812 -3.479,3.666c-1.521,0.85 -3.355,1.275 -5.509,1.275Zm-3.666,-2.795l3.487,-0c1.617,-0 2.959,-0.305 4.029,-0.913c1.071,-0.613 1.871,-1.5 2.404,-2.663c0.534,-1.166 0.796,-2.587 0.796,-4.266c0,-1.663 -0.262,-3.075 -0.796,-4.238c-0.524,-1.158 -1.308,-2.037 -2.349,-2.637c-1.046,-0.604 -2.338,-0.904 -3.884,-0.904l-3.687,-0l-0,15.62Zm24.454,3.117c-1.567,0 -2.917,-0.333 -4.05,-1.004c-1.125,-0.675 -1.996,-1.625 -2.608,-2.85c-0.609,-1.229 -0.913,-2.667 -0.913,-4.317c0,-1.629 0.304,-3.066 0.913,-4.308c0.612,-1.246 1.47,-2.213 2.566,-2.912c1.104,-0.696 2.396,-1.046 3.875,-1.046c0.896,-0 1.767,0.15 2.609,0.446c0.845,0.295 1.599,0.762 2.27,1.399c0.671,0.634 1.196,1.459 1.584,2.476c0.387,1.008 0.579,2.233 0.579,3.674l-0,1.101l-12.646,-0l0,-2.321l9.613,-0c-0,-0.817 -0.167,-1.538 -0.496,-2.167c-0.334,-0.633 -0.8,-1.133 -1.4,-1.5c-0.592,-0.367 -1.292,-0.55 -2.092,-0.55c-0.871,0 -1.629,0.213 -2.279,0.642c-0.642,0.421 -1.138,0.975 -1.492,1.658c-0.346,0.675 -0.516,1.413 -0.516,2.204l-0,1.813c-0,1.066 0.187,1.971 0.558,2.716c0.379,0.746 0.908,1.313 1.583,1.709c0.679,0.387 1.471,0.579 2.375,0.579c0.584,-0 1.121,-0.083 1.604,-0.25c0.484,-0.171 0.9,-0.425 1.255,-0.767c0.35,-0.337 0.62,-0.754 0.808,-1.25l2.929,0.525c-0.233,0.867 -0.654,1.621 -1.262,2.271c-0.601,0.642 -1.359,1.142 -2.271,1.5c-0.905,0.354 -1.934,0.529 -3.096,0.529Zm22.183,-12.346l-2.808,0.496c-0.117,-0.358 -0.3,-0.7 -0.558,-1.025c-0.246,-0.325 -0.588,-0.587 -1.013,-0.796c-0.429,-0.208 -0.967,-0.312 -1.608,-0.312c-0.875,-0 -1.609,0.196 -2.196,0.592c-0.588,0.387 -0.879,0.887 -0.879,1.5c-0,0.533 0.196,0.962 0.591,1.287c0.392,0.321 1.029,0.588 1.904,0.796l2.53,0.579c1.462,0.338 2.554,0.863 3.27,1.567c0.717,0.704 1.08,1.616 1.08,2.741c-0,0.955 -0.279,1.805 -0.829,2.55c-0.546,0.738 -1.309,1.317 -2.292,1.738c-0.971,0.425 -2.1,0.633 -3.384,0.633c-1.783,0 -3.237,-0.379 -4.362,-1.137c-1.125,-0.767 -1.817,-1.854 -2.071,-3.263l2.992,-0.458c0.187,0.779 0.571,1.371 1.15,1.771c0.579,0.396 1.337,0.591 2.271,0.591c1.012,0 1.825,-0.212 2.433,-0.633c0.608,-0.425 0.913,-0.95 0.913,-1.562c-0,-0.496 -0.188,-0.917 -0.563,-1.255c-0.367,-0.337 -0.929,-0.591 -1.688,-0.766l-2.691,-0.588c-1.483,-0.341 -2.583,-0.879 -3.296,-1.616c-0.704,-0.742 -1.054,-1.675 -1.054,-2.809c-0,-0.937 0.262,-1.758 0.787,-2.462c0.525,-0.709 1.25,-1.254 2.175,-1.65c0.925,-0.4 1.984,-0.6 3.18,-0.6c1.716,-0 3.07,0.375 4.058,1.121c0.987,0.737 1.642,1.729 1.958,2.97Zm10.417,12.346c-1.538,0 -2.867,-0.35 -3.975,-1.046c-1.108,-0.704 -1.954,-1.675 -2.55,-2.912c-0.592,-1.233 -0.892,-2.65 -0.892,-4.246c0,-1.612 0.304,-3.042 0.913,-4.275c0.608,-1.246 1.462,-2.212 2.571,-2.912c1.104,-0.696 2.404,-1.046 3.904,-1.046c1.208,-0 2.283,0.225 3.229,0.675c0.946,0.441 1.708,1.062 2.292,1.862c0.587,0.8 0.933,1.738 1.045,2.809l-3.016,-0c-0.163,-0.746 -0.546,-1.388 -1.138,-1.93c-0.587,-0.537 -1.375,-0.804 -2.362,-0.804c-0.863,0 -1.617,0.225 -2.267,0.684c-0.642,0.445 -1.142,1.087 -1.504,1.925c-0.358,0.829 -0.538,1.808 -0.538,2.941c0,1.159 0.175,2.163 0.53,3.004c0.35,0.842 0.85,1.496 1.491,1.959c0.65,0.462 1.413,0.691 2.288,0.691c0.587,0 1.121,-0.108 1.596,-0.32c0.483,-0.221 0.887,-0.534 1.212,-0.942c0.329,-0.408 0.563,-0.9 0.692,-1.471l3.016,0c-0.112,1.029 -0.445,1.946 -1.004,2.754c-0.562,0.809 -1.308,1.442 -2.25,1.909c-0.933,0.462 -2.025,0.691 -3.283,0.691Zm9.85,-0.321l-0,-15.908l2.992,0l-0,2.525l0.166,0c0.288,-0.854 0.8,-1.529 1.534,-2.017c0.737,-0.5 1.57,-0.745 2.504,-0.745c0.196,-0 0.421,0.004 0.683,0.02c0.271,0.013 0.479,0.03 0.633,0.05l0,2.963c-0.125,-0.033 -0.345,-0.071 -0.662,-0.113c-0.317,-0.05 -0.638,-0.075 -0.954,-0.075c-0.734,0 -1.384,0.159 -1.959,0.467c-0.566,0.304 -1.012,0.729 -1.345,1.275c-0.33,0.538 -0.496,1.154 -0.496,1.842l-0,9.716l-3.096,0Zm11.192,0l-0,-15.908l3.095,0l0,15.908l-3.095,0Zm1.562,-18.362c-0.537,-0 -1,-0.179 -1.387,-0.542c-0.38,-0.362 -0.567,-0.8 -0.567,-1.304c-0,-0.508 0.187,-0.946 0.567,-1.304c0.387,-0.367 0.85,-0.55 1.387,-0.55c0.542,-0 1,0.183 1.379,0.55c0.388,0.358 0.579,0.796 0.579,1.304c0,0.504 -0.191,0.942 -0.579,1.304c-0.379,0.363 -0.837,0.542 -1.379,0.542Zm5.7,24.329l0,-21.875l3.025,0l0,2.579l0.258,0c0.18,-0.333 0.438,-0.716 0.78,-1.15c0.337,-0.437 0.808,-0.816 1.408,-1.141c0.6,-0.33 1.392,-0.496 2.379,-0.496c1.288,-0 2.433,0.325 3.442,0.975c1.008,0.65 1.796,1.583 2.371,2.804c0.579,1.225 0.87,2.696 0.87,4.412c0,1.721 -0.287,3.196 -0.862,4.425c-0.571,1.221 -1.359,2.163 -2.358,2.825c-1.005,0.659 -2.146,0.988 -3.43,0.988c-0.966,-0 -1.758,-0.163 -2.37,-0.488c-0.609,-0.325 -1.084,-0.704 -1.43,-1.141c-0.346,-0.434 -0.612,-0.821 -0.8,-1.159l-0.187,0l-0,8.442l-3.096,0Zm3.037,-13.921c0,1.117 0.163,2.1 0.484,2.942c0.325,0.842 0.796,1.5 1.408,1.979c0.617,0.467 1.371,0.704 2.258,0.704c0.925,0 1.7,-0.246 2.321,-0.737c0.621,-0.496 1.092,-1.171 1.409,-2.021c0.325,-0.846 0.487,-1.804 0.487,-2.867c0,-1.05 -0.158,-1.991 -0.475,-2.829c-0.312,-0.833 -0.783,-1.492 -1.408,-1.975c-0.621,-0.487 -1.4,-0.729 -2.334,-0.729c-0.895,-0 -1.654,0.233 -2.275,0.696c-0.616,0.462 -1.083,1.108 -1.4,1.937c-0.316,0.829 -0.475,1.796 -0.475,2.9Zm22.392,-7.954l0,2.483l-8.692,0l0,-2.483l8.692,0Zm-6.358,-3.812l3.096,-0l-0,15.05c-0,0.6 0.087,1.054 0.266,1.358c0.184,0.296 0.413,0.5 0.696,0.608c0.292,0.104 0.604,0.154 0.942,0.154c0.25,0 0.466,-0.016 0.654,-0.05c0.187,-0.033 0.329,-0.062 0.433,-0.083l0.559,2.558c-0.18,0.071 -0.434,0.138 -0.763,0.209c-0.333,0.075 -0.746,0.116 -1.246,0.125c-0.812,0.012 -1.575,-0.134 -2.279,-0.438c-0.704,-0.304 -1.271,-0.771 -1.708,-1.408c-0.434,-0.633 -0.65,-1.433 -0.65,-2.392l-0,-15.691Zm9.783,19.72l0,-15.908l3.096,0l-0,15.908l-3.096,0Zm1.563,-18.362c-0.538,-0 -1,-0.179 -1.388,-0.542c-0.379,-0.362 -0.567,-0.8 -0.567,-1.304c0,-0.508 0.188,-0.946 0.567,-1.304c0.388,-0.367 0.85,-0.55 1.388,-0.55c0.541,-0 1,0.183 1.379,0.55c0.387,0.358 0.579,0.796 0.579,1.304c-0,0.504 -0.192,0.942 -0.579,1.304c-0.379,0.363 -0.838,0.542 -1.379,0.542Zm12.404,18.683c-1.492,0 -2.796,-0.341 -3.909,-1.025c-1.108,-0.683 -1.975,-1.641 -2.587,-2.871c-0.617,-1.229 -0.921,-2.662 -0.921,-4.308c0,-1.65 0.304,-3.092 0.921,-4.329c0.612,-1.233 1.479,-2.196 2.587,-2.879c1.113,-0.684 2.417,-1.025 3.909,-1.025c1.487,-0 2.791,0.341 3.904,1.025c1.108,0.683 1.975,1.646 2.587,2.879c0.617,1.237 0.921,2.679 0.921,4.329c0,1.646 -0.304,3.079 -0.921,4.308c-0.612,1.23 -1.479,2.188 -2.587,2.871c-1.113,0.684 -2.417,1.025 -3.904,1.025Zm0.008,-2.6c0.967,0 1.767,-0.254 2.404,-0.766c0.634,-0.509 1.104,-1.192 1.409,-2.042c0.308,-0.846 0.466,-1.783 0.466,-2.804c0,-1.017 -0.158,-1.95 -0.466,-2.796c-0.305,-0.858 -0.775,-1.546 -1.409,-2.063c-0.637,-0.516 -1.437,-0.775 -2.404,-0.775c-0.975,0 -1.783,0.259 -2.425,0.775c-0.633,0.517 -1.108,1.205 -1.417,2.063c-0.304,0.846 -0.458,1.779 -0.458,2.796c0,1.021 0.154,1.958 0.458,2.804c0.309,0.85 0.784,1.533 1.417,2.042c0.642,0.512 1.45,0.766 2.425,0.766Zm13.958,-7.166l0,9.445l-3.095,0l-0,-15.908l2.97,0l0,2.588l0.2,-0c0.363,-0.842 0.938,-1.517 1.717,-2.03c0.788,-0.512 1.779,-0.766 2.975,-0.766c1.083,-0 2.033,0.229 2.846,0.683c0.817,0.45 1.446,1.121 1.896,2.008c0.45,0.892 0.675,1.996 0.675,3.305l-0,10.12l-3.096,0l-0,-9.745c-0,-1.155 -0.304,-2.055 -0.904,-2.705c-0.6,-0.654 -1.425,-0.983 -2.475,-0.983c-0.717,0 -1.354,0.154 -1.917,0.467c-0.55,0.308 -0.992,0.766 -1.312,1.366c-0.321,0.592 -0.48,1.313 -0.48,2.155Zm16.375,9.641c-0.566,0 -1.05,-0.2 -1.458,-0.6c-0.408,-0.408 -0.612,-0.896 -0.612,-1.471c-0,-0.566 0.204,-1.05 0.612,-1.45c0.408,-0.408 0.892,-0.612 1.458,-0.612c0.567,-0 1.055,0.204 1.463,0.612c0.408,0.4 0.608,0.884 0.608,1.45c0,0.38 -0.096,0.73 -0.287,1.046c-0.188,0.313 -0.438,0.559 -0.746,0.746c-0.313,0.188 -0.658,0.279 -1.038,0.279Zm0,-11.579c-0.566,0 -1.05,-0.204 -1.458,-0.612c-0.408,-0.405 -0.612,-0.892 -0.612,-1.459c-0,-0.566 0.204,-1.05 0.612,-1.45c0.408,-0.408 0.892,-0.612 1.458,-0.612c0.567,-0 1.055,0.204 1.463,0.612c0.408,0.4 0.608,0.884 0.608,1.45c0,0.379 -0.096,0.729 -0.287,1.046c-0.188,0.313 -0.438,0.558 -0.746,0.746c-0.313,0.187 -0.658,0.279 -1.038,0.279Z" style="fill:#3a3939;fill-rule:nonzero;"/><path d="M583.446,979.167l-0,-21.213l3.2,0l-0,9.217l10.575,-0l-0,-9.217l3.212,0l0,21.213l-3.212,-0l-0,-9.25l-10.575,-0l-0,9.25l-3.2,-0Zm26.029,0.354c-1.008,-0 -1.921,-0.188 -2.733,-0.563c-0.817,-0.379 -1.463,-0.929 -1.938,-1.645c-0.471,-0.717 -0.704,-1.601 -0.704,-2.642c0,-0.896 0.171,-1.638 0.517,-2.217c0.345,-0.579 0.812,-1.037 1.4,-1.375c0.583,-0.341 1.241,-0.596 1.966,-0.766c0.725,-0.176 1.463,-0.305 2.217,-0.396c0.954,-0.109 1.725,-0.2 2.321,-0.267c0.591,-0.079 1.025,-0.2 1.291,-0.363c0.271,-0.166 0.405,-0.437 0.405,-0.808l-0,-0.075c-0,-0.904 -0.255,-1.604 -0.767,-2.1c-0.504,-0.5 -1.254,-0.746 -2.254,-0.746c-1.046,0 -1.867,0.23 -2.467,0.692c-0.596,0.458 -1.004,0.963 -1.233,1.525l-2.909,-0.662c0.342,-0.967 0.846,-1.75 1.513,-2.342c0.667,-0.6 1.437,-1.038 2.308,-1.304c0.871,-0.279 1.784,-0.417 2.746,-0.417c0.633,0 1.308,0.075 2.017,0.229c0.721,0.146 1.387,0.413 2.012,0.809c0.625,0.391 1.142,0.954 1.542,1.687c0.4,0.725 0.6,1.667 0.6,2.825l-0,10.567l-3.025,-0l-0,-2.175l-0.125,-0c-0.2,0.4 -0.5,0.796 -0.9,1.179c-0.4,0.387 -0.913,0.708 -1.542,0.966c-0.629,0.255 -1.383,0.384 -2.258,0.384Zm0.671,-2.488c0.858,0 1.591,-0.17 2.196,-0.508c0.616,-0.337 1.083,-0.779 1.4,-1.325c0.325,-0.554 0.487,-1.142 0.487,-1.771l0,-2.05c-0.112,0.109 -0.325,0.213 -0.642,0.309c-0.312,0.091 -0.666,0.17 -1.066,0.237c-0.4,0.063 -0.792,0.121 -1.171,0.179c-0.379,0.046 -0.7,0.088 -0.954,0.125c-0.6,0.075 -1.15,0.2 -1.646,0.379c-0.492,0.184 -0.883,0.442 -1.183,0.78c-0.288,0.329 -0.434,0.775 -0.434,1.325c0,0.766 0.284,1.345 0.85,1.741c0.567,0.388 1.288,0.579 2.163,0.579Zm23.225,-9.891l-2.804,0.496c-0.121,-0.359 -0.305,-0.7 -0.563,-1.025c-0.246,-0.325 -0.587,-0.588 -1.012,-0.796c-0.43,-0.209 -0.963,-0.313 -1.609,-0.313c-0.875,0 -1.608,0.196 -2.196,0.592c-0.583,0.387 -0.879,0.887 -0.879,1.5c0,0.533 0.196,0.962 0.592,1.287c0.392,0.321 1.029,0.588 1.904,0.796l2.529,0.579c1.463,0.338 2.554,0.863 3.271,1.567c0.721,0.704 1.079,1.617 1.079,2.742c0,0.954 -0.275,1.804 -0.829,2.55c-0.546,0.737 -1.308,1.316 -2.287,1.737c-0.975,0.425 -2.105,0.634 -3.388,0.634c-1.783,-0 -3.237,-0.38 -4.362,-1.138c-1.125,-0.767 -1.817,-1.854 -2.071,-3.262l2.991,-0.459c0.188,0.779 0.571,1.371 1.15,1.771c0.584,0.396 1.338,0.592 2.271,0.592c1.013,-0 1.825,-0.213 2.434,-0.634c0.608,-0.425 0.912,-0.95 0.912,-1.562c0,-0.496 -0.187,-0.917 -0.562,-1.254c-0.363,-0.338 -0.925,-0.592 -1.688,-0.767l-2.692,-0.587c-1.483,-0.342 -2.583,-0.88 -3.295,-1.617c-0.705,-0.742 -1.055,-1.675 -1.055,-2.808c0,-0.938 0.263,-1.759 0.788,-2.463c0.525,-0.708 1.25,-1.254 2.175,-1.65c0.925,-0.4 1.983,-0.6 3.179,-0.6c1.721,0 3.071,0.375 4.058,1.121c0.988,0.737 1.642,1.729 1.959,2.971Zm6.812,2.579l0,9.446l-3.096,-0l0,-21.213l3.055,0l-0,7.892l0.2,-0c0.37,-0.854 0.941,-1.533 1.708,-2.038c0.767,-0.504 1.767,-0.758 3.004,-0.758c1.088,0 2.042,0.225 2.858,0.675c0.821,0.446 1.455,1.117 1.905,2.008c0.454,0.884 0.683,1.988 0.683,3.313l0,10.121l-3.096,-0l0,-9.746c0,-1.167 -0.3,-2.071 -0.9,-2.713c-0.604,-0.65 -1.437,-0.975 -2.508,-0.975c-0.733,0 -1.388,0.155 -1.967,0.467c-0.575,0.308 -1.025,0.767 -1.358,1.367c-0.325,0.591 -0.488,1.312 -0.488,2.154Zm16.492,9.642c-0.567,-0 -1.054,-0.2 -1.462,-0.6c-0.409,-0.409 -0.613,-0.896 -0.613,-1.471c0,-0.567 0.204,-1.05 0.613,-1.45c0.408,-0.409 0.895,-0.613 1.462,-0.613c0.567,0 1.05,0.204 1.458,0.613c0.409,0.4 0.613,0.883 0.613,1.45c-0,0.379 -0.096,0.729 -0.292,1.046c-0.187,0.312 -0.433,0.558 -0.746,0.745c-0.308,0.188 -0.654,0.28 -1.033,0.28Zm0,-11.58c-0.567,0 -1.054,-0.204 -1.462,-0.612c-0.409,-0.404 -0.613,-0.892 -0.613,-1.458c0,-0.567 0.204,-1.05 0.613,-1.45c0.408,-0.409 0.895,-0.613 1.462,-0.613c0.567,0 1.05,0.204 1.458,0.613c0.409,0.4 0.613,0.883 0.613,1.45c-0,0.379 -0.096,0.729 -0.292,1.045c-0.187,0.313 -0.433,0.559 -0.746,0.746c-0.308,0.188 -0.654,0.279 -1.033,0.279Z" style="fill:#3a3939;fill-rule:nonzero;"/><path d="M532.842,1062.5l-0,-21.212l7.766,-0c1.509,-0 2.755,0.25 3.742,0.745c0.988,0.492 1.725,1.159 2.217,2c0.487,0.834 0.733,1.78 0.733,2.825c0,0.888 -0.162,1.634 -0.487,2.238c-0.321,0.604 -0.759,1.087 -1.305,1.45c-0.537,0.362 -1.133,0.625 -1.779,0.787l0,0.209c0.704,0.033 1.392,0.262 2.059,0.683c0.679,0.417 1.237,1.004 1.679,1.771c0.441,0.766 0.662,1.7 0.662,2.796c0,1.087 -0.254,2.058 -0.766,2.92c-0.505,0.859 -1.284,1.538 -2.342,2.042c-1.054,0.496 -2.404,0.746 -4.05,0.746l-8.129,-0Zm3.2,-2.746l4.62,0c1.534,0 2.63,-0.296 3.292,-0.891c0.663,-0.592 0.996,-1.334 0.996,-2.226c0,-0.67 -0.171,-1.283 -0.508,-1.841c-0.338,-0.563 -0.821,-1.008 -1.45,-1.338c-0.621,-0.333 -1.359,-0.495 -2.217,-0.495l-4.733,-0.001l-0,6.792Zm-0,-9.287l4.287,-0c0.721,-0 1.367,-0.142 1.938,-0.417c0.579,-0.275 1.041,-0.663 1.379,-1.158c0.346,-0.505 0.516,-1.1 0.516,-1.784c0,-0.875 -0.308,-1.612 -0.92,-2.204c-0.617,-0.596 -1.559,-0.892 -2.829,-0.892l-4.371,0l-0,6.455Zm33.5,-2.28l-3.23,0c-0.125,-0.691 -0.354,-1.3 -0.695,-1.824c-0.338,-0.525 -0.75,-0.971 -1.242,-1.338c-0.492,-0.362 -1.038,-0.642 -1.646,-0.825c-0.6,-0.188 -1.242,-0.283 -1.917,-0.283c-1.22,-0 -2.316,0.308 -3.283,0.925c-0.958,0.612 -1.721,1.512 -2.279,2.704c-0.55,1.187 -0.829,2.637 -0.829,4.35c-0,1.725 0.279,3.183 0.829,4.371c0.558,1.187 1.321,2.083 2.287,2.691c0.967,0.609 2.055,0.913 3.263,0.913c0.671,-0 1.308,-0.092 1.908,-0.271c0.609,-0.188 1.154,-0.458 1.646,-0.817c0.492,-0.362 0.904,-0.8 1.242,-1.316c0.346,-0.525 0.583,-1.125 0.716,-1.804l3.23,0.012c-0.171,1.042 -0.505,2 -1.005,2.879c-0.487,0.871 -1.12,1.621 -1.895,2.259c-0.763,0.629 -1.642,1.112 -2.63,1.458c-0.987,0.346 -2.062,0.521 -3.233,0.521c-1.833,-0 -3.471,-0.438 -4.908,-1.309c-1.434,-0.875 -2.567,-2.129 -3.396,-3.758c-0.821,-1.629 -1.233,-3.575 -1.233,-5.829c-0,-2.267 0.416,-4.213 1.241,-5.833c0.829,-1.63 1.963,-2.88 3.4,-3.75c1.434,-0.875 3.067,-1.317 4.896,-1.317c1.129,-0 2.179,0.162 3.15,0.487c0.979,0.321 1.863,0.788 2.642,1.409c0.779,0.616 1.425,1.37 1.937,2.258c0.513,0.883 0.854,1.896 1.034,3.037Zm12.958,2.359l-0,2.696l-9.408,-0l-0,-2.696l9.408,-0Zm4.375,11.954l-0,-21.212l13.3,-0l-0,2.754l-10.1,-0l-0,6.462l9.404,0l0,2.746l-9.404,0l-0,6.496l10.221,-0l-0,2.754l-13.421,0Zm19.771,-15.908l3.508,6.191l3.542,-6.191l3.387,-0l-4.958,7.954l5,7.954l-3.388,0l-3.583,-5.946l-3.571,5.946l-3.4,0l4.954,-7.954l-4.891,-7.954l3.4,-0Zm13.616,21.875l0,-21.875l3.025,-0l0,2.579l0.259,-0c0.179,-0.333 0.442,-0.717 0.779,-1.15c0.338,-0.438 0.808,-0.817 1.408,-1.142c0.6,-0.329 1.396,-0.496 2.384,-0.496c1.283,0 2.429,0.325 3.437,0.975c1.008,0.65 1.8,1.584 2.371,2.805c0.579,1.225 0.871,2.695 0.871,4.412c-0,1.721 -0.288,3.196 -0.858,4.425c-0.576,1.221 -1.363,2.163 -2.363,2.825c-1,0.658 -2.146,0.988 -3.429,0.988c-0.967,-0 -1.759,-0.163 -2.371,-0.488c-0.608,-0.325 -1.083,-0.704 -1.429,-1.142c-0.346,-0.433 -0.613,-0.82 -0.8,-1.158l-0.184,0l0,8.442l-3.1,-0Zm3.038,-13.921c-0,1.117 0.162,2.1 0.487,2.942c0.321,0.841 0.792,1.5 1.409,1.979c0.612,0.466 1.366,0.704 2.258,0.704c0.925,-0 1.696,-0.246 2.317,-0.738c0.625,-0.495 1.091,-1.17 1.408,-2.02c0.325,-0.846 0.488,-1.805 0.488,-2.867c-0,-1.05 -0.159,-1.992 -0.475,-2.829c-0.313,-0.834 -0.78,-1.492 -1.409,-1.975c-0.621,-0.488 -1.4,-0.729 -2.329,-0.729c-0.9,-0 -1.658,0.233 -2.279,0.695c-0.617,0.463 -1.083,1.109 -1.4,1.938c-0.317,0.829 -0.475,1.796 -0.475,2.9Zm18.062,-13.258l0,21.212l-3.095,0l-0,-21.212l3.095,-0Zm10.867,21.533c-1.492,-0 -2.792,-0.342 -3.904,-1.025c-1.113,-0.683 -1.975,-1.642 -2.588,-2.871c-0.616,-1.229 -0.925,-2.662 -0.925,-4.308c0,-1.65 0.309,-3.092 0.925,-4.329c0.613,-1.234 1.475,-2.196 2.588,-2.88c1.112,-0.683 2.412,-1.025 3.904,-1.025c1.492,0 2.796,0.342 3.904,1.025c1.113,0.684 1.975,1.646 2.592,2.88c0.612,1.237 0.921,2.679 0.921,4.329c-0,1.646 -0.309,3.079 -0.921,4.308c-0.617,1.229 -1.479,2.188 -2.592,2.871c-1.108,0.683 -2.412,1.025 -3.904,1.025Zm0.013,-2.6c0.966,-0 1.766,-0.254 2.4,-0.767c0.637,-0.508 1.108,-1.191 1.408,-2.041c0.312,-0.846 0.467,-1.784 0.467,-2.805c-0,-1.016 -0.155,-1.95 -0.467,-2.795c-0.3,-0.859 -0.771,-1.546 -1.408,-2.063c-0.634,-0.517 -1.434,-0.775 -2.4,-0.775c-0.975,0 -1.784,0.258 -2.425,0.775c-0.634,0.517 -1.109,1.204 -1.421,2.063c-0.3,0.845 -0.454,1.779 -0.454,2.795c-0,1.021 0.154,1.959 0.454,2.805c0.312,0.85 0.787,1.533 1.421,2.041c0.641,0.513 1.45,0.767 2.425,0.767Zm10.862,2.279l0,-15.908l2.992,-0l-0,2.525l0.166,-0c0.288,-0.855 0.8,-1.53 1.534,-2.017c0.737,-0.5 1.575,-0.746 2.504,-0.746c0.196,0 0.421,0.004 0.683,0.021c0.271,0.013 0.484,0.029 0.634,0.05l-0,2.963c-0.125,-0.034 -0.346,-0.071 -0.663,-0.113c-0.317,-0.05 -0.637,-0.075 -0.954,-0.075c-0.729,0 -1.383,0.158 -1.958,0.467c-0.567,0.304 -1.013,0.729 -1.346,1.275c-0.329,0.537 -0.496,1.154 -0.496,1.841l-0,9.717l-3.096,0Zm17.479,0.321c-1.566,-0 -2.916,-0.333 -4.05,-1.004c-1.125,-0.675 -1.996,-1.625 -2.608,-2.85c-0.608,-1.229 -0.913,-2.667 -0.913,-4.317c0,-1.629 0.305,-3.067 0.913,-4.308c0.612,-1.246 1.471,-2.213 2.567,-2.913c1.104,-0.696 2.395,-1.046 3.875,-1.046c0.895,0 1.766,0.15 2.608,0.446c0.842,0.296 1.6,0.763 2.271,1.4c0.666,0.634 1.196,1.459 1.583,2.475c0.388,1.009 0.579,2.234 0.579,3.675l0,1.1l-12.646,0l0,-2.321l9.613,0c-0,-0.816 -0.167,-1.537 -0.496,-2.166c-0.333,-0.634 -0.8,-1.134 -1.4,-1.5c-0.596,-0.367 -1.292,-0.55 -2.092,-0.55c-0.87,-0 -1.629,0.212 -2.279,0.641c-0.641,0.421 -1.137,0.975 -1.491,1.659c-0.346,0.675 -0.517,1.412 -0.517,2.204l-0,1.812c-0,1.067 0.183,1.971 0.558,2.717c0.379,0.746 0.909,1.313 1.584,1.708c0.679,0.388 1.466,0.579 2.375,0.579c0.583,0 1.12,-0.083 1.604,-0.25c0.483,-0.17 0.9,-0.425 1.254,-0.766c0.35,-0.338 0.621,-0.754 0.804,-1.25l2.933,0.525c-0.233,0.866 -0.654,1.621 -1.262,2.271c-0.6,0.641 -1.358,1.141 -2.271,1.5c-0.904,0.354 -1.937,0.529 -3.096,0.529Zm10.263,-0.321l-0,-15.908l2.991,-0l0,2.525l0.167,-0c0.292,-0.855 0.8,-1.53 1.533,-2.017c0.738,-0.5 1.575,-0.746 2.505,-0.746c0.195,0 0.425,0.004 0.687,0.021c0.267,0.012 0.479,0.029 0.629,0.05l0,2.962c-0.125,-0.033 -0.346,-0.07 -0.662,-0.112c-0.317,-0.05 -0.634,-0.075 -0.954,-0.075c-0.73,0 -1.384,0.158 -1.955,0.467c-0.566,0.304 -1.016,0.729 -1.35,1.275c-0.329,0.537 -0.495,1.154 -0.495,1.841l-0,9.717l-3.096,-0Zm13.233,0.196c-0.567,-0 -1.054,-0.2 -1.458,-0.6c-0.409,-0.409 -0.613,-0.896 -0.613,-1.471c0,-0.567 0.204,-1.05 0.613,-1.45c0.404,-0.408 0.891,-0.613 1.458,-0.613c0.567,0 1.054,0.205 1.463,0.613c0.404,0.4 0.608,0.883 0.608,1.45c-0,0.379 -0.096,0.729 -0.288,1.046c-0.187,0.312 -0.437,0.558 -0.745,0.746c-0.313,0.187 -0.659,0.279 -1.038,0.279Zm0,-11.579c-0.567,-0 -1.054,-0.205 -1.458,-0.613c-0.409,-0.404 -0.613,-0.892 -0.613,-1.458c0,-0.567 0.204,-1.05 0.613,-1.45c0.404,-0.409 0.891,-0.613 1.458,-0.613c0.567,0 1.054,0.204 1.463,0.613c0.404,0.4 0.608,0.883 0.608,1.45c-0,0.379 -0.096,0.729 -0.288,1.046c-0.187,0.312 -0.437,0.558 -0.745,0.745c-0.313,0.188 -0.659,0.28 -1.038,0.28Z" style="fill:#3a3939;fill-rule:nonzero;"/><path d="M534.646,1214.88l-0,-2.754l16.417,-0l-0,2.754l-6.621,0l-0,18.458l-3.188,0l0,-18.458l-6.608,0Zm19.796,18.458l-0,-15.908l3.095,0l0,15.908l-3.095,0Zm1.562,-18.362c-0.537,-0 -1,-0.179 -1.387,-0.542c-0.38,-0.362 -0.571,-0.8 -0.571,-1.304c-0,-0.508 0.191,-0.946 0.571,-1.304c0.387,-0.367 0.85,-0.55 1.387,-0.55c0.538,-0 0.996,0.183 1.379,0.55c0.384,0.358 0.579,0.796 0.579,1.304c0,0.504 -0.195,0.942 -0.579,1.304c-0.383,0.363 -0.841,0.542 -1.379,0.542Zm5.7,18.362l0,-15.908l2.971,0l-0,2.587l0.196,0c0.333,-0.874 0.875,-1.558 1.629,-2.05c0.75,-0.495 1.654,-0.745 2.7,-0.745c1.067,-0 1.954,0.25 2.675,0.745c0.725,0.496 1.258,1.18 1.604,2.05l0.167,0c0.379,-0.85 0.983,-1.524 1.812,-2.029c0.829,-0.512 1.817,-0.766 2.963,-0.766c1.441,-0 2.621,0.454 3.529,1.358c0.921,0.904 1.379,2.267 1.379,4.092l0,10.666l-3.096,0l0,-10.379c0,-1.075 -0.296,-1.858 -0.879,-2.341c-0.587,-0.484 -1.292,-0.726 -2.104,-0.726c-1.008,0.001 -1.792,0.313 -2.35,0.934c-0.563,0.616 -0.842,1.404 -0.842,2.371l0,10.141l-3.083,0l-0,-10.575c-0,-0.862 -0.271,-1.558 -0.808,-2.083c-0.542,-0.525 -1.242,-0.787 -2.105,-0.787c-0.587,-0 -1.129,0.158 -1.625,0.466c-0.491,0.304 -0.887,0.729 -1.191,1.275c-0.296,0.546 -0.446,1.179 -0.446,1.896l-0,9.808l-3.096,0Zm32.633,0.321c-1.566,0 -2.916,-0.333 -4.05,-1.004c-1.125,-0.675 -1.995,-1.625 -2.612,-2.85c-0.604,-1.229 -0.908,-2.667 -0.908,-4.317c-0,-1.629 0.304,-3.066 0.908,-4.308c0.617,-1.246 1.471,-2.213 2.571,-2.913c1.104,-0.695 2.396,-1.045 3.875,-1.045c0.896,-0 1.766,0.15 2.608,0.445c0.842,0.296 1.6,0.763 2.267,1.4c0.671,0.634 1.2,1.459 1.587,2.475c0.388,1.009 0.579,2.234 0.579,3.676l0,1.1l-12.645,-0l-0,-2.321l9.612,-0c0,-0.817 -0.167,-1.538 -0.5,-2.167c-0.329,-0.633 -0.796,-1.133 -1.396,-1.5c-0.596,-0.367 -1.291,-0.55 -2.091,-0.55c-0.871,0 -1.63,0.213 -2.28,0.642c-0.641,0.42 -1.141,0.975 -1.491,1.658c-0.346,0.675 -0.521,1.413 -0.521,2.204l-0,1.813c-0,1.066 0.187,1.971 0.562,2.716c0.38,0.746 0.909,1.313 1.584,1.709c0.675,0.387 1.466,0.579 2.371,0.579c0.587,-0 1.125,-0.083 1.608,-0.25c0.483,-0.171 0.9,-0.425 1.25,-0.767c0.354,-0.337 0.625,-0.754 0.808,-1.25l2.934,0.525c-0.238,0.867 -0.659,1.621 -1.267,2.271c-0.6,0.642 -1.354,1.142 -2.267,1.5c-0.904,0.354 -1.937,0.529 -3.096,0.529Zm22.184,-12.346l-2.809,0.496c-0.116,-0.358 -0.304,-0.7 -0.558,-1.025c-0.25,-0.325 -0.587,-0.587 -1.017,-0.796c-0.424,-0.208 -0.962,-0.312 -1.604,-0.312c-0.875,-0 -1.608,0.196 -2.195,0.591c-0.588,0.388 -0.88,0.888 -0.88,1.501c0,0.533 0.196,0.962 0.588,1.287c0.396,0.321 1.029,0.588 1.908,0.796l2.525,0.579c1.467,0.338 2.559,0.863 3.275,1.567c0.717,0.704 1.075,1.616 1.075,2.741c0,0.955 -0.275,1.805 -0.825,2.55c-0.546,0.738 -1.312,1.317 -2.291,1.738c-0.975,0.425 -2.1,0.633 -3.388,0.633c-1.779,0 -3.233,-0.379 -4.358,-1.137c-1.125,-0.767 -1.817,-1.855 -2.071,-3.263l2.992,-0.458c0.187,0.779 0.57,1.371 1.15,1.771c0.579,0.396 1.337,0.591 2.266,0.591c1.017,0 1.829,-0.212 2.434,-0.633c0.608,-0.425 0.912,-0.95 0.912,-1.562c0,-0.496 -0.187,-0.917 -0.558,-1.255c-0.367,-0.337 -0.929,-0.591 -1.688,-0.766l-2.691,-0.588c-1.488,-0.341 -2.584,-0.879 -3.296,-1.616c-0.704,-0.742 -1.059,-1.675 -1.059,-2.809c0,-0.937 0.263,-1.758 0.788,-2.462c0.525,-0.709 1.25,-1.254 2.175,-1.65c0.925,-0.4 1.987,-0.6 3.183,-0.6c1.717,-0 3.071,0.375 4.059,1.121c0.987,0.737 1.641,1.729 1.958,2.97Zm11.142,-3.883l-0,2.483l-8.692,0l-0,-2.483l8.692,0Zm-6.359,-3.812l3.096,-0l0,15.05c0,0.6 0.088,1.054 0.267,1.358c0.183,0.296 0.412,0.5 0.696,0.608c0.291,0.104 0.604,0.154 0.941,0.154c0.25,0 0.467,-0.016 0.654,-0.05c0.188,-0.033 0.33,-0.062 0.434,-0.083l0.558,2.558c-0.179,0.071 -0.433,0.138 -0.762,0.209c-0.334,0.075 -0.746,0.116 -1.246,0.125c-0.813,0.012 -1.575,-0.134 -2.279,-0.438c-0.705,-0.304 -1.271,-0.771 -1.709,-1.408c-0.433,-0.633 -0.65,-1.433 -0.65,-2.392l0,-15.691Zm14.413,20.075c-1.009,-0 -1.917,-0.188 -2.734,-0.563c-0.816,-0.379 -1.462,-0.929 -1.937,-1.646c-0.471,-0.716 -0.704,-1.6 -0.704,-2.641c-0,-0.896 0.175,-1.638 0.516,-2.217c0.346,-0.579 0.813,-1.038 1.4,-1.375c0.588,-0.342 1.242,-0.596 1.967,-0.767c0.725,-0.175 1.467,-0.304 2.217,-0.396c0.954,-0.108 1.729,-0.2 2.321,-0.266c0.595,-0.079 1.025,-0.2 1.295,-0.363c0.267,-0.166 0.405,-0.437 0.405,-0.808l-0,-0.075c-0,-0.904 -0.259,-1.604 -0.767,-2.1c-0.504,-0.5 -1.258,-0.746 -2.258,-0.746c-1.042,0 -1.867,0.229 -2.467,0.692c-0.592,0.458 -1.004,0.962 -1.233,1.525l-2.909,-0.663c0.346,-0.966 0.85,-1.75 1.513,-2.341c0.671,-0.6 1.437,-1.038 2.308,-1.305c0.871,-0.279 1.788,-0.416 2.746,-0.416c0.633,-0 1.308,0.075 2.021,0.229c0.716,0.146 1.387,0.412 2.008,0.808c0.629,0.392 1.142,0.954 1.542,1.688c0.4,0.725 0.6,1.666 0.6,2.825l-0,10.566l-3.021,0l-0,-2.175l-0.125,0c-0.2,0.4 -0.5,0.796 -0.9,1.18c-0.404,0.387 -0.917,0.708 -1.546,0.966c-0.629,0.254 -1.379,0.384 -2.258,0.384Zm0.675,-2.488c0.854,0 1.587,-0.171 2.196,-0.508c0.612,-0.338 1.079,-0.779 1.395,-1.325c0.325,-0.554 0.488,-1.142 0.488,-1.771l-0,-2.05c-0.108,0.108 -0.325,0.212 -0.642,0.308c-0.308,0.092 -0.666,0.171 -1.066,0.238c-0.4,0.062 -0.792,0.121 -1.171,0.179c-0.379,0.046 -0.696,0.087 -0.954,0.125c-0.6,0.075 -1.146,0.2 -1.646,0.379c-0.488,0.183 -0.884,0.442 -1.179,0.779c-0.292,0.329 -0.438,0.775 -0.438,1.325c0,0.767 0.283,1.346 0.85,1.742c0.567,0.387 1.288,0.579 2.167,0.579Zm11.3,2.133l-0,-15.908l2.975,0l-0,2.588l0.196,-0c0.333,-0.875 0.875,-1.559 1.625,-2.05c0.754,-0.496 1.654,-0.746 2.704,-0.746c1.062,-0 1.954,0.25 2.671,0.746c0.725,0.495 1.262,1.179 1.608,2.05l0.167,-0c0.379,-0.85 0.983,-1.525 1.812,-2.03c0.825,-0.512 1.813,-0.766 2.958,-0.766c1.446,-0 2.621,0.454 3.534,1.358c0.921,0.904 1.379,2.267 1.379,4.092l-0,10.666l-3.096,0l0,-10.379c0,-1.075 -0.296,-1.858 -0.883,-2.341c-0.588,-0.484 -1.288,-0.725 -2.1,-0.725c-1.009,-0 -1.792,0.312 -2.354,0.933c-0.559,0.616 -0.838,1.404 -0.838,2.371l0,10.141l-3.087,0l-0,-10.575c-0,-0.862 -0.267,-1.558 -0.809,-2.083c-0.537,-0.525 -1.237,-0.787 -2.1,-0.787c-0.587,-0 -1.129,0.158 -1.629,0.466c-0.487,0.304 -0.887,0.729 -1.187,1.275c-0.3,0.546 -0.446,1.179 -0.446,1.896l-0,9.808l-3.1,0Zm25.779,5.967l-0,-21.875l3.025,0l-0,2.579l0.258,0c0.179,-0.333 0.438,-0.716 0.775,-1.15c0.342,-0.437 0.809,-0.816 1.409,-1.141c0.604,-0.33 1.395,-0.496 2.383,-0.496c1.283,-0 2.433,0.325 3.437,0.975c1.009,0.65 1.8,1.583 2.375,2.804c0.58,1.225 0.871,2.696 0.871,4.412c0,1.721 -0.287,3.196 -0.862,4.425c-0.571,1.221 -1.359,2.163 -2.363,2.825c-1,0.659 -2.141,0.988 -3.425,0.988c-0.966,-0 -1.758,-0.163 -2.375,-0.488c-0.604,-0.325 -1.083,-0.704 -1.429,-1.141c-0.346,-0.434 -0.608,-0.821 -0.796,-1.159l-0.187,0l-0,8.442l-3.096,0Zm3.033,-13.921c0,1.117 0.163,2.1 0.488,2.942c0.325,0.842 0.796,1.5 1.408,1.979c0.617,0.467 1.367,0.704 2.258,0.704c0.925,0 1.7,-0.246 2.321,-0.737c0.621,-0.496 1.092,-1.171 1.409,-2.021c0.325,-0.846 0.487,-1.804 0.487,-2.867c0,-1.05 -0.158,-1.991 -0.479,-2.829c-0.308,-0.833 -0.779,-1.492 -1.408,-1.975c-0.621,-0.487 -1.396,-0.729 -2.33,-0.729c-0.895,-0 -1.658,0.233 -2.279,0.696c-0.612,0.462 -1.079,1.108 -1.396,1.937c-0.32,0.829 -0.479,1.796 -0.479,2.9Zm17.009,8.15c-0.567,0 -1.055,-0.2 -1.463,-0.6c-0.404,-0.408 -0.608,-0.896 -0.608,-1.471c-0,-0.566 0.204,-1.05 0.608,-1.45c0.408,-0.408 0.896,-0.612 1.463,-0.612c0.566,-0 1.054,0.204 1.458,0.612c0.408,0.4 0.612,0.884 0.612,1.45c0,0.38 -0.095,0.73 -0.287,1.046c-0.188,0.313 -0.438,0.559 -0.746,0.746c-0.312,0.188 -0.658,0.279 -1.037,0.279Zm-0,-11.579c-0.567,0 -1.055,-0.204 -1.463,-0.612c-0.404,-0.405 -0.608,-0.892 -0.608,-1.459c-0,-0.566 0.204,-1.05 0.608,-1.45c0.408,-0.408 0.896,-0.612 1.463,-0.612c0.566,-0 1.054,0.204 1.458,0.612c0.408,0.4 0.612,0.884 0.612,1.45c0,0.379 -0.095,0.729 -0.287,1.046c-0.188,0.313 -0.438,0.558 -0.746,0.746c-0.312,0.187 -0.658,0.279 -1.037,0.279Z" style="fill:#3a3939;fill-rule:nonzero;"/><path d="M513.138,1127.38l-0,-2.754l16.416,-0l0,2.754l-6.617,0l0,18.458l-3.191,0l-0,-18.458l-6.609,0Zm18.146,18.458l0,-15.908l2.992,0l0,2.525l0.167,-0c0.291,-0.854 0.8,-1.529 1.533,-2.017c0.738,-0.5 1.575,-0.746 2.508,-0.746c0.192,0 0.421,0.005 0.684,0.021c0.266,0.013 0.479,0.03 0.629,0.05l-0,2.963c-0.125,-0.033 -0.346,-0.071 -0.663,-0.113c-0.316,-0.05 -0.633,-0.075 -0.954,-0.075c-0.729,0 -1.383,0.159 -1.954,0.467c-0.567,0.304 -1.017,0.729 -1.346,1.275c-0.333,0.538 -0.5,1.154 -0.5,1.842l0,9.716l-3.096,0Zm15.679,0.354c-1.008,0 -1.916,-0.187 -2.733,-0.562c-0.812,-0.379 -1.458,-0.929 -1.937,-1.646c-0.467,-0.717 -0.705,-1.6 -0.705,-2.642c0,-0.895 0.175,-1.637 0.521,-2.216c0.342,-0.579 0.809,-1.038 1.396,-1.375c0.588,-0.342 1.242,-0.596 1.967,-0.767c0.725,-0.175 1.466,-0.304 2.216,-0.396c0.955,-0.108 1.73,-0.2 2.321,-0.266c0.596,-0.08 1.025,-0.2 1.296,-0.363c0.271,-0.167 0.404,-0.437 0.404,-0.808l0,-0.075c0,-0.904 -0.254,-1.604 -0.766,-2.1c-0.505,-0.5 -1.259,-0.746 -2.259,-0.746c-1.041,-0 -1.862,0.229 -2.466,0.692c-0.592,0.458 -1.005,0.962 -1.23,1.525l-2.912,-0.663c0.346,-0.967 0.85,-1.75 1.513,-2.341c0.67,-0.601 1.441,-1.038 2.308,-1.305c0.871,-0.279 1.787,-0.416 2.746,-0.416c0.637,-0 1.308,0.075 2.02,0.229c0.717,0.146 1.388,0.412 2.009,0.808c0.629,0.392 1.141,0.954 1.541,1.688c0.405,0.725 0.605,1.666 0.605,2.825l-0,10.566l-3.025,0l-0,-2.175l-0.125,0c-0.2,0.4 -0.5,0.796 -0.9,1.179c-0.4,0.388 -0.917,0.709 -1.546,0.967c-0.625,0.254 -1.379,0.383 -2.259,0.383Zm0.675,-2.487c0.859,-0 1.588,-0.171 2.196,-0.508c0.613,-0.338 1.079,-0.78 1.4,-1.325c0.321,-0.555 0.484,-1.142 0.484,-1.771l-0,-2.05c-0.109,0.108 -0.321,0.212 -0.642,0.308c-0.308,0.092 -0.667,0.171 -1.067,0.238c-0.4,0.062 -0.787,0.12 -1.17,0.179c-0.38,0.046 -0.696,0.087 -0.951,0.125c-0.604,0.075 -1.149,0.2 -1.649,0.379c-0.488,0.183 -0.884,0.442 -1.18,0.779c-0.291,0.329 -0.433,0.775 -0.433,1.325c0,0.767 0.283,1.346 0.846,1.742c0.566,0.387 1.291,0.579 2.166,0.579Zm14.4,-7.313l0,9.446l-3.095,0l-0,-15.908l2.97,-0l0,2.587l0.196,0c0.367,-0.841 0.942,-1.516 1.721,-2.029c0.788,-0.512 1.779,-0.766 2.971,-0.766c1.087,-0 2.033,0.229 2.85,0.683c0.817,0.45 1.446,1.121 1.896,2.008c0.45,0.892 0.671,1.996 0.671,3.304l-0,10.121l-3.096,0l-0,-9.746c-0,-1.154 -0.3,-2.054 -0.9,-2.704c-0.6,-0.654 -1.425,-0.983 -2.475,-0.983c-0.721,-0 -1.359,0.154 -1.917,0.467c-0.554,0.308 -0.992,0.766 -1.317,1.366c-0.316,0.592 -0.475,1.313 -0.475,2.154Zm26.255,-2.579l-2.805,0.496c-0.116,-0.358 -0.304,-0.7 -0.558,-1.025c-0.25,-0.325 -0.587,-0.587 -1.017,-0.796c-0.429,-0.208 -0.962,-0.312 -1.604,-0.312c-0.879,-0 -1.612,0.196 -2.196,0.591c-0.587,0.388 -0.883,0.888 -0.883,1.5c0,0.534 0.2,0.963 0.592,1.288c0.392,0.321 1.029,0.587 1.904,0.796l2.529,0.579c1.463,0.337 2.554,0.862 3.271,1.567c0.721,0.704 1.079,1.616 1.079,2.741c0,0.954 -0.275,1.804 -0.829,2.55c-0.546,0.738 -1.308,1.317 -2.287,1.738c-0.976,0.425 -2.105,0.633 -3.388,0.633c-1.783,0 -3.237,-0.379 -4.362,-1.137c-1.125,-0.767 -1.813,-1.855 -2.071,-3.263l2.996,-0.458c0.183,0.779 0.566,1.371 1.15,1.771c0.579,0.395 1.333,0.591 2.266,0.591c1.017,0 1.825,-0.212 2.434,-0.633c0.608,-0.425 0.912,-0.95 0.912,-1.563c0,-0.495 -0.187,-0.916 -0.558,-1.254c-0.367,-0.337 -0.929,-0.591 -1.692,-0.766l-2.692,-0.588c-1.483,-0.342 -2.583,-0.879 -3.291,-1.617c-0.704,-0.741 -1.059,-1.675 -1.059,-2.808c0,-0.937 0.263,-1.758 0.788,-2.462c0.525,-0.709 1.25,-1.255 2.175,-1.65c0.925,-0.4 1.983,-0.6 3.179,-0.6c1.721,-0 3.075,0.375 4.063,1.12c0.987,0.738 1.637,1.73 1.954,2.971Zm8.346,12.379c-1.009,0 -1.917,-0.187 -2.734,-0.562c-0.812,-0.379 -1.458,-0.929 -1.937,-1.646c-0.467,-0.717 -0.704,-1.6 -0.704,-2.642c-0,-0.895 0.175,-1.637 0.516,-2.216c0.346,-0.579 0.813,-1.038 1.4,-1.375c0.588,-0.342 1.242,-0.596 1.967,-0.767c0.725,-0.175 1.467,-0.304 2.217,-0.396c0.954,-0.108 1.729,-0.2 2.32,-0.266c0.596,-0.08 1.025,-0.2 1.296,-0.363c0.267,-0.167 0.404,-0.437 0.404,-0.808l0,-0.075c0,-0.904 -0.258,-1.604 -0.766,-2.1c-0.504,-0.5 -1.259,-0.746 -2.259,-0.746c-1.041,-0 -1.862,0.229 -2.466,0.692c-0.592,0.458 -1.004,0.962 -1.229,1.525l-2.913,-0.663c0.346,-0.967 0.85,-1.75 1.513,-2.342c0.67,-0.6 1.437,-1.037 2.308,-1.304c0.871,-0.279 1.787,-0.416 2.746,-0.416c0.633,-0 1.308,0.075 2.021,0.229c0.716,0.146 1.387,0.412 2.008,0.808c0.629,0.392 1.142,0.954 1.542,1.688c0.4,0.725 0.604,1.666 0.604,2.825l-0,10.566l-3.025,0l-0,-2.175l-0.125,0c-0.2,0.4 -0.5,0.796 -0.9,1.179c-0.404,0.388 -0.917,0.709 -1.546,0.967c-0.629,0.254 -1.379,0.383 -2.258,0.383Zm0.675,-2.487c0.854,-0 1.587,-0.171 2.195,-0.508c0.613,-0.338 1.08,-0.78 1.396,-1.325c0.325,-0.555 0.488,-1.142 0.488,-1.771l-0,-2.05c-0.109,0.108 -0.325,0.212 -0.642,0.308c-0.308,0.092 -0.667,0.171 -1.067,0.238c-0.4,0.062 -0.791,0.12 -1.17,0.179c-0.38,0.046 -0.696,0.087 -0.95,0.125c-0.605,0.075 -1.15,0.2 -1.65,0.379c-0.488,0.183 -0.884,0.442 -1.18,0.779c-0.291,0.329 -0.433,0.775 -0.433,1.325c0,0.767 0.279,1.346 0.846,1.742c0.567,0.387 1.287,0.579 2.167,0.579Zm18.004,2.454c-1.542,0 -2.867,-0.35 -3.979,-1.046c-1.105,-0.704 -1.955,-1.675 -2.546,-2.912c-0.596,-1.234 -0.892,-2.65 -0.892,-4.246c0,-1.613 0.304,-3.042 0.913,-4.275c0.608,-1.246 1.462,-2.213 2.566,-2.913c1.104,-0.695 2.409,-1.045 3.904,-1.045c1.209,-0 2.288,0.225 3.234,0.675c0.946,0.441 1.708,1.062 2.287,1.862c0.588,0.8 0.938,1.738 1.046,2.808l-3.012,0c-0.167,-0.745 -0.546,-1.387 -1.138,-1.929c-0.587,-0.537 -1.375,-0.804 -2.362,-0.804c-0.863,0 -1.621,0.225 -2.271,0.683c-0.642,0.446 -1.142,1.088 -1.5,1.925c-0.359,0.83 -0.538,1.809 -0.538,2.942c0,1.158 0.175,2.163 0.525,3.004c0.354,0.842 0.85,1.496 1.492,1.959c0.65,0.462 1.412,0.691 2.292,0.691c0.587,0 1.116,-0.108 1.595,-0.321c0.484,-0.22 0.888,-0.533 1.209,-0.941c0.333,-0.409 0.566,-0.9 0.696,-1.471l3.012,-0c-0.108,1.029 -0.446,1.946 -1.004,2.754c-0.558,0.808 -1.308,1.442 -2.246,1.908c-0.933,0.463 -2.029,0.692 -3.283,0.692Zm17.275,-16.229l-0,2.483l-8.692,0l0,-2.483l8.692,0Zm-6.363,-3.813l3.096,0l0,15.051c0,0.6 0.092,1.054 0.271,1.358c0.179,0.296 0.412,0.5 0.696,0.608c0.287,0.104 0.604,0.154 0.941,0.154c0.25,0 0.467,-0.016 0.65,-0.05c0.188,-0.033 0.334,-0.062 0.438,-0.083l0.558,2.558c-0.179,0.071 -0.433,0.138 -0.766,0.209c-0.33,0.075 -0.746,0.116 -1.242,0.125c-0.817,0.012 -1.575,-0.134 -2.279,-0.438c-0.704,-0.304 -1.275,-0.771 -1.709,-1.408c-0.437,-0.633 -0.654,-1.433 -0.654,-2.392l0,-15.691Zm9.788,19.72l-0,-15.908l3.096,0l-0,15.908l-3.096,0Zm1.562,-18.362c-0.537,-0 -1,-0.179 -1.387,-0.542c-0.379,-0.362 -0.571,-0.8 -0.571,-1.304c-0,-0.508 0.192,-0.946 0.571,-1.304c0.387,-0.367 0.85,-0.55 1.387,-0.55c0.538,-0 1,0.183 1.379,0.55c0.384,0.358 0.58,0.796 0.58,1.304c-0,0.504 -0.196,0.942 -0.58,1.304c-0.379,0.363 -0.841,0.542 -1.379,0.542Zm12.4,18.683c-1.491,0 -2.791,-0.341 -3.904,-1.025c-1.112,-0.683 -1.975,-1.641 -2.587,-2.871c-0.617,-1.229 -0.925,-2.662 -0.925,-4.308c-0,-1.65 0.308,-3.092 0.925,-4.329c0.612,-1.233 1.475,-2.196 2.587,-2.879c1.113,-0.684 2.413,-1.025 3.904,-1.025c1.492,-0 2.792,0.341 3.904,1.025c1.113,0.683 1.975,1.646 2.592,2.879c0.613,1.237 0.921,2.679 0.921,4.329c-0,1.646 -0.308,3.079 -0.921,4.308c-0.617,1.23 -1.479,2.188 -2.592,2.871c-1.112,0.684 -2.412,1.025 -3.904,1.025Zm0.013,-2.6c0.966,0 1.766,-0.254 2.4,-0.766c0.637,-0.509 1.108,-1.192 1.408,-2.042c0.313,-0.846 0.467,-1.783 0.467,-2.804c-0,-1.017 -0.154,-1.95 -0.467,-2.796c-0.3,-0.858 -0.771,-1.546 -1.408,-2.063c-0.634,-0.516 -1.434,-0.775 -2.4,-0.775c-0.975,0 -1.784,0.259 -2.425,0.775c-0.634,0.517 -1.109,1.205 -1.421,2.063c-0.3,0.846 -0.454,1.779 -0.454,2.796c-0,1.021 0.154,1.958 0.454,2.804c0.312,0.85 0.787,1.533 1.421,2.042c0.641,0.512 1.45,0.766 2.425,0.766Zm13.958,-7.166l0,9.445l-3.096,0l0,-15.908l2.971,0l0,2.588l0.196,-0c0.367,-0.842 0.942,-1.517 1.721,-2.03c0.787,-0.512 1.779,-0.766 2.971,-0.766c1.087,-0 2.033,0.229 2.85,0.683c0.812,0.45 1.445,1.121 1.895,2.008c0.45,0.892 0.671,1.996 0.671,3.305l0,10.12l-3.096,0l0,-9.745c0,-1.155 -0.3,-2.055 -0.9,-2.705c-0.6,-0.654 -1.425,-0.983 -2.475,-0.983c-0.72,0 -1.358,0.154 -1.916,0.467c-0.554,0.308 -0.992,0.766 -1.317,1.366c-0.317,0.592 -0.475,1.313 -0.475,2.154Zm23.708,-0.858l0,2.679l-9.404,0l0,-2.679l9.404,0Zm7.575,-10.908l0,21.212l-3.2,0l0,-21.212l3.2,-0Zm11.53,21.212l-6.867,0l-0,-21.212l7.083,-0c2.079,-0 3.863,0.425 5.354,1.275c1.492,0.841 2.634,2.054 3.43,3.633c0.8,1.575 1.2,3.463 1.2,5.667c-0,2.208 -0.405,4.108 -1.209,5.696c-0.804,1.587 -1.962,2.812 -3.483,3.666c-1.517,0.85 -3.354,1.275 -5.508,1.275Zm-3.667,-2.796l3.492,0c1.612,0 2.958,-0.304 4.029,-0.912c1.066,-0.612 1.871,-1.5 2.4,-2.663c0.533,-1.166 0.8,-2.587 0.8,-4.266c-0,-1.663 -0.267,-3.075 -0.8,-4.238c-0.525,-1.158 -1.309,-2.037 -2.35,-2.637c-1.042,-0.604 -2.338,-0.904 -3.884,-0.904l-3.687,-0l-0,15.62Zm19.642,0.167c-0.567,0 -1.055,-0.2 -1.463,-0.604c-0.408,-0.404 -0.612,-0.896 -0.612,-1.471c-0,-0.562 0.204,-1.046 0.612,-1.45c0.408,-0.404 0.896,-0.608 1.463,-0.608c0.566,-0 1.05,0.204 1.458,0.608c0.408,0.404 0.612,0.888 0.612,1.45c0,0.384 -0.095,0.729 -0.291,1.05c-0.188,0.309 -0.434,0.559 -0.746,0.742c-0.308,0.187 -0.654,0.283 -1.033,0.283Zm-0,-10.629c-0.567,0 -1.055,-0.2 -1.463,-0.6c-0.408,-0.408 -0.612,-0.896 -0.612,-1.471c-0,-0.566 0.204,-1.05 0.612,-1.45c0.408,-0.408 0.896,-0.612 1.463,-0.612c0.566,-0 1.05,0.204 1.458,0.612c0.408,0.4 0.612,0.884 0.612,1.45c0,0.379 -0.095,0.729 -0.291,1.046c-0.188,0.313 -0.434,0.558 -0.746,0.746c-0.308,0.187 -0.654,0.279 -1.033,0.279Z" style="fill:#3a3939;fill-rule:nonzero;"/><path d="M392.525,455.625c-0.393,2.913 -1.634,4.371 -3.723,4.371c-0.732,-0 -2.136,-0.325 -4.211,-0.975c-2.076,-0.65 -3.866,-0.975 -5.371,-0.975c-1.94,-0 -3.622,0.717 -5.046,2.154c-1.411,1.438 -2.116,2.692 -2.116,3.767c-0,1.041 0.651,1.971 1.953,2.787c0.529,0.338 0.794,0.642 0.794,0.913c-0,0.366 -0.38,0.862 -1.14,1.487c-0.745,0.621 -1.308,0.934 -1.688,0.934c-0.638,-0 -1.235,-0.367 -1.791,-1.096c-0.556,-0.734 -0.834,-1.534 -0.834,-2.404c0,-1.68 0.685,-3.513 2.055,-5.492c1.37,-1.992 3.16,-3.613 5.371,-4.863c2.211,-1.262 4.53,-1.891 6.958,-1.891c1.642,-0 3.194,0.25 4.659,0.754c1.465,0.487 2.38,0.729 2.747,0.729c0.325,0 0.603,-0.092 0.834,-0.283l0.122,-0.042l0.427,0.125Zm-7.629,6.246c0.529,-0 0.793,0.167 0.793,0.508l-0.488,2.704l-0.102,5.025c-0.067,1.642 -0.319,3.155 -0.752,4.538c-0.394,1.287 -0.943,2.462 -1.648,3.521c-0.638,0.975 -1.404,1.837 -2.299,2.583c-0.828,0.692 -1.737,1.275 -2.727,1.75c-0.922,0.433 -1.892,0.758 -2.909,0.975c-0.936,0.217 -1.879,0.325 -2.828,0.325c-2.211,0 -3.947,-0.475 -5.209,-1.421c-1.247,-0.966 -1.871,-1.896 -1.871,-2.787c-0,-0.517 0.461,-1.184 1.384,-1.996c0.935,-0.813 1.64,-1.221 2.115,-1.221c0.583,0 0.875,0.542 0.875,1.629c-0,1.763 0.285,2.909 0.855,3.438c0.583,0.516 1.356,0.771 2.319,0.771c1.56,-0 2.923,-0.492 4.089,-1.484c1.18,-0.992 1.974,-2.171 2.381,-3.541c0.406,-1.384 0.617,-3.417 0.631,-6.1c0.013,-2.688 0.21,-4.534 0.59,-5.538c0.393,-1.017 1.105,-1.883 2.136,-2.604c1.03,-0.717 1.919,-1.075 2.665,-1.075Zm25.797,16.966c-3.214,3.338 -5.859,5.005 -7.934,5.005c-0.922,-0 -1.689,-0.313 -2.299,-0.938c-0.597,-0.637 -0.895,-1.437 -0.895,-2.4c-0,-1.625 0.623,-3.917 1.871,-6.875c0.665,-1.6 0.997,-2.646 0.997,-3.133c0,-0.559 -0.264,-0.834 -0.793,-0.834c-0.543,0 -1.33,0.371 -2.36,1.117c-1.031,0.733 -2.116,1.738 -3.255,3.013c-0.475,2.495 -0.713,5.491 -0.713,8.991l-4.537,1.059c-0.176,-1.425 -0.264,-2.971 -0.264,-4.638c0,-4.042 0.556,-7.808 1.668,-11.292c1.113,-3.487 2.862,-7.183 5.249,-11.087c1.777,-0.721 3.323,-1.304 4.639,-1.75c1.329,-0.463 2.089,-0.692 2.279,-0.692c0.352,0 0.651,0.284 0.895,0.854c0.244,0.571 0.366,1.28 0.366,2.138c0,1.437 -0.441,3.029 -1.322,4.779c-0.882,1.738 -2.265,3.838 -4.151,6.308c1.804,-1.045 3.005,-1.704 3.601,-1.975c0.597,-0.27 1.207,-0.408 1.831,-0.408c0.692,0 1.248,0.254 1.669,0.754c0.434,0.488 0.651,1.138 0.651,1.954c-0,1.221 -0.489,3.113 -1.465,5.675c-0.963,2.563 -1.445,4.171 -1.445,4.821c0,0.3 0.089,0.563 0.265,0.796c0.19,0.229 0.407,0.346 0.651,0.346c0.868,-0 2.468,-1.308 4.801,-3.929l0,2.341Zm-14.099,-8.341c4.842,-5.629 7.263,-9.779 7.263,-12.45c0,-0.817 -0.223,-1.221 -0.671,-1.221c-0.746,-0 -1.811,1.333 -3.194,4.008c-1.384,2.671 -2.516,5.892 -3.398,9.663Zm23.702,-12.371c-0,3.254 -1.2,4.883 -3.6,4.883c-1.167,0 -2.164,-0.354 -2.991,-1.058c0.786,-1.192 1.396,-2.538 1.83,-4.029c1.072,0.666 1.932,1 2.586,1c0.729,-0 1.458,-0.267 2.175,-0.796Zm0.408,20.712c-3.175,3.338 -5.548,5.005 -7.122,5.005c-0.868,-0 -1.6,-0.442 -2.197,-1.321c-0.597,-0.896 -0.895,-2.017 -0.895,-3.359c-0,-2.887 0.977,-6.891 2.93,-12.004l5.167,-1.079l0.246,0l-2.037,6.371c-0.84,2.629 -1.261,4.508 -1.261,5.633c0,0.45 0.095,0.817 0.285,1.1c0.204,0.271 0.455,0.409 0.753,0.409c0.527,-0 1.056,-0.192 1.585,-0.571c0.546,-0.396 1.392,-1.234 2.546,-2.525l0,2.341Zm6.267,-11.92c0.933,-0.246 1.879,-0.442 2.825,-0.592c0.95,-0.163 1.521,-0.246 1.712,-0.246c0.134,0 0.2,0.054 0.2,0.163c0,0.204 -0.054,0.416 -0.162,0.633c-0.217,0.625 -0.325,1.221 -0.325,1.787c-0,0.709 0.408,1.671 1.221,2.892c0.812,1.221 1.22,2.354 1.22,3.396c0,2.075 -0.995,4.075 -2.991,6.004c-1.979,1.925 -4.034,2.888 -6.163,2.888c-0.925,-0 -1.762,-0.246 -2.525,-0.734c-0.758,-0.487 -1.137,-1.008 -1.137,-1.566c-0,-0.325 0.371,-0.942 1.116,-1.85c0.763,-0.909 1.305,-1.363 1.63,-1.363c0.433,0 0.82,0.554 1.158,1.667c0.342,1.112 0.925,1.671 1.75,1.671c0.829,-0 1.6,-0.384 2.321,-1.142c0.733,-0.771 1.1,-1.6 1.1,-2.483c-0,-0.855 -0.463,-1.992 -1.384,-3.417c-0.925,-1.425 -1.533,-2.617 -1.833,-3.579c-1.571,2.537 -3.567,5.133 -5.979,7.791l-0.471,0l0,-1.833c3.325,-3.537 5.563,-6.9 6.717,-10.087Zm36.296,11.92c-1.738,1.709 -3.334,2.963 -4.784,3.763c-1.437,0.8 -2.941,1.2 -4.516,1.2c-1.763,-0 -3.221,-0.567 -4.375,-1.708c-1.138,-1.155 -1.709,-2.609 -1.709,-4.375c0,-2.888 1.05,-5.555 3.154,-7.996c2.117,-2.454 4.4,-3.679 6.859,-3.679c1.204,-0 2.187,0.337 2.95,1.016c0.758,0.663 1.137,1.534 1.137,2.604c0,0.38 -0.075,0.663 -0.225,0.855c-0.133,0.187 -0.4,0.379 -0.791,0.57l-2.363,1.117c-0.283,0.138 -0.492,0.204 -0.629,0.204c-0.192,0 -0.283,-0.137 -0.283,-0.408c-0,-0.108 0.037,-0.458 0.12,-1.058c0.084,-0.609 0.121,-0.984 0.121,-1.117c0,-0.596 -0.129,-1.079 -0.383,-1.446c-0.246,-0.367 -0.579,-0.55 -1,-0.55c-0.988,0 -1.896,0.733 -2.725,2.2c-0.813,1.463 -1.221,3.133 -1.221,5.004c0,1.613 0.388,2.9 1.158,3.867c0.775,0.962 1.805,1.442 3.096,1.442c1.096,-0 2.129,-0.313 3.092,-0.934c0.975,-0.637 2.079,-1.608 3.317,-2.912l-0,2.341Zm15.216,0c-1.721,1.696 -3.271,2.95 -4.637,3.763c-1.371,0.8 -2.884,1.2 -4.538,1.2c-1.846,-0 -3.337,-0.588 -4.475,-1.767c-1.129,-1.183 -1.691,-2.733 -1.691,-4.662c-0,-2.875 1,-5.471 2.991,-7.792c1.996,-2.333 4.204,-3.5 6.634,-3.5c1.262,0 2.27,0.329 3.029,0.979c0.762,0.65 1.141,1.504 1.141,2.563c0,2.808 -2.983,5.087 -8.954,6.837c0.546,2.642 1.963,3.967 4.254,3.967c0.896,0 1.75,-0.238 2.563,-0.713c0.812,-0.487 2.042,-1.558 3.683,-3.216l0,2.341Zm-10.662,-3.762c3.475,-0.979 5.208,-2.783 5.208,-5.413c0,-1.304 -0.475,-1.954 -1.421,-1.954c-0.896,0 -1.75,0.684 -2.566,2.054c-0.813,1.359 -1.221,3.125 -1.221,5.313Zm25.879,3.763c-3.404,3.337 -6.029,5.004 -7.871,5.004c-0.829,-0 -1.529,-0.346 -2.096,-1.038c-0.571,-0.704 -0.854,-1.575 -0.854,-2.604c0,-1.912 1.021,-4.475 3.071,-7.692c-1.004,0.517 -2.104,0.875 -3.296,1.08c-0.883,1.629 -2.267,3.379 -4.15,5.25l-0.467,-0l0,-1.834c1.055,-1.096 2.013,-2.275 2.867,-3.537c-1.167,-0.517 -1.75,-1.284 -1.75,-2.3c0,-1.046 0.354,-2.159 1.058,-3.338c0.721,-1.191 1.705,-1.787 2.95,-1.787c1.059,-0 1.588,0.541 1.588,1.625c-0,0.854 -0.304,2.075 -0.917,3.662c2.25,-0.241 4.217,-1.966 5.9,-5.166l1.85,-0.084l-1.891,5.209c-0.784,2.2 -1.296,3.695 -1.525,4.495c-0.23,0.788 -0.346,1.488 -0.346,2.096c-0,0.571 0.129,1.025 0.387,1.367c0.271,0.337 0.629,0.508 1.079,0.508c0.488,0 0.955,-0.162 1.405,-0.491c0.445,-0.338 1.45,-1.259 3.008,-2.767l-0,2.342Zm11.721,-0c-1.709,1.695 -3.188,2.95 -4.438,3.762c-1.246,0.8 -2.433,1.2 -3.558,1.2c-1.167,0 -2.117,-0.487 -2.85,-1.462c-0.717,-0.992 -1.079,-2.288 -1.079,-3.888c-0,-1.408 0.341,-3.275 1.021,-5.596l0.891,-3.071l-1.566,0.084l0.654,-3.196l1.933,-0.083l1.913,-6.346l5.45,-1.121l-2.075,7.083l2.829,-0.162l-0.671,3.133l-3.154,0.242l-1.363,4.558c-0.462,1.588 -0.691,2.85 -0.691,3.783c-0,0.638 0.154,1.159 0.466,1.567c0.325,0.392 0.738,0.592 1.242,0.592c0.692,-0 1.375,-0.217 2.054,-0.654c0.679,-0.446 1.675,-1.367 2.992,-2.767l-0,2.342Zm9.6,-20.713c-0,3.254 -1.2,4.883 -3.6,4.883c-1.167,0 -2.163,-0.354 -2.992,-1.058c0.788,-1.192 1.4,-2.537 1.833,-4.029c1.071,0.667 1.934,1 2.584,1c0.733,-0 1.458,-0.267 2.175,-0.796Zm0.408,20.713c-3.175,3.337 -5.546,5.004 -7.121,5.004c-0.866,-0 -1.6,-0.442 -2.196,-1.321c-0.595,-0.896 -0.895,-2.017 -0.895,-3.358c-0,-2.888 0.975,-6.892 2.929,-12.005l5.166,-1.079l0.246,0l-2.033,6.371c-0.842,2.629 -1.263,4.508 -1.263,5.633c0,0.45 0.096,0.817 0.284,1.1c0.204,0.271 0.454,0.409 0.754,0.409c0.529,-0 1.058,-0.192 1.587,-0.571c0.542,-0.396 1.388,-1.233 2.542,-2.525l0,2.342Zm16.521,-0c-1.413,1.587 -2.808,2.812 -4.192,3.683c-1.383,0.854 -2.616,1.279 -3.704,1.279c-0.512,0 -1.221,-0.196 -2.112,-0.587c-0.571,2.983 -1.075,6.204 -1.509,9.662c-1.408,0.192 -3.104,0.483 -5.083,0.875c0.433,-3.717 1.183,-8.537 2.258,-14.467c-0.15,-0.258 -0.416,-0.908 -0.796,-1.95l-1.362,1.505l-0.467,-0l0,-1.834l3.863,-4.004c0.746,-3.65 1.35,-6.287 1.812,-7.917c0.463,-1.629 1.104,-3.425 1.934,-5.391c0.825,-1.979 1.35,-3.113 1.566,-3.396c0.217,-0.3 0.738,-0.579 1.567,-0.833c0.842,-0.275 1.733,-0.525 2.683,-0.755c0.95,-0.245 1.459,-0.366 1.529,-0.366c0.513,-0 0.934,0.337 1.259,1.016c0.325,0.667 0.487,1.546 0.487,2.646c0,1.9 -0.5,3.729 -1.504,5.492c-1.004,1.762 -2.9,3.933 -5.696,6.512l-1.708,8.484c0.662,1.425 1.662,2.137 2.992,2.137c1.895,0 3.958,-1.379 6.183,-4.133l-0,2.342Zm-6.838,-11.596c1.588,-1.384 2.83,-2.871 3.725,-4.459c0.909,-1.6 1.363,-3.07 1.363,-4.412c-0,-0.571 -0.108,-1.038 -0.325,-1.404c-0.204,-0.367 -0.463,-0.55 -0.775,-0.55c-0.596,-0 -1.204,0.779 -1.829,2.341c-0.613,1.559 -1.329,4.388 -2.159,8.484Zm16.442,-9.117c0,3.254 -1.2,4.883 -3.604,4.883c-1.167,0 -2.163,-0.354 -2.988,-1.058c0.784,-1.192 1.396,-2.537 1.83,-4.029c1.07,0.667 1.933,1 2.583,1c0.733,-0 1.458,-0.267 2.179,-0.796Zm0.404,20.713c-3.171,3.337 -5.546,5.004 -7.121,5.004c-0.866,-0 -1.6,-0.442 -2.195,-1.321c-0.596,-0.896 -0.896,-2.017 -0.896,-3.358c-0,-2.888 0.979,-6.892 2.929,-12.005l5.167,-1.079l0.245,0l-2.033,6.371c-0.842,2.629 -1.262,4.508 -1.262,5.633c-0,0.45 0.095,0.817 0.283,1.1c0.204,0.271 0.454,0.409 0.754,0.409c0.529,-0 1.058,-0.192 1.588,-0.571c0.541,-0.396 1.391,-1.233 2.541,-2.525l0,2.342Zm15.221,-0c-1.737,1.708 -3.329,2.962 -4.783,3.762c-1.438,0.8 -2.942,1.2 -4.517,1.2c-1.762,0 -3.221,-0.567 -4.375,-1.708c-1.137,-1.154 -1.708,-2.609 -1.708,-4.375c-0,-2.888 1.054,-5.554 3.154,-7.996c2.117,-2.454 4.4,-3.679 6.858,-3.679c1.204,-0 2.188,0.337 2.95,1.016c0.759,0.663 1.138,1.534 1.138,2.605c-0,0.379 -0.075,0.662 -0.225,0.854c-0.134,0.187 -0.4,0.379 -0.792,0.571l-2.362,1.116c-0.284,0.138 -0.492,0.204 -0.63,0.204c-0.187,0 -0.283,-0.137 -0.283,-0.408c0,-0.108 0.042,-0.458 0.121,-1.058c0.083,-0.609 0.121,-0.984 0.121,-1.117c-0,-0.596 -0.129,-1.079 -0.384,-1.446c-0.245,-0.366 -0.579,-0.55 -1,-0.55c-0.987,0 -1.895,0.734 -2.725,2.2c-0.812,1.463 -1.22,3.134 -1.22,5.004c-0,1.613 0.387,2.9 1.158,3.867c0.775,0.963 1.804,1.442 3.096,1.442c1.096,-0 2.129,-0.313 3.091,-0.934c0.975,-0.637 2.08,-1.608 3.317,-2.912l0,2.342Zm21.729,-0c-2.171,2.062 -3.725,3.404 -4.662,4.029c-0.934,0.621 -1.829,0.933 -2.684,0.933c-2.145,0 -3.154,-1.892 -3.033,-5.675c-1.354,1.938 -2.608,3.371 -3.762,4.292c-1.138,0.925 -2.321,1.383 -3.542,1.383c-1.192,0 -2.208,-0.554 -3.05,-1.667c-0.829,-1.125 -1.242,-2.504 -1.242,-4.129c0,-2.037 0.559,-3.975 1.667,-5.821c1.129,-1.841 2.567,-3.337 4.317,-4.475c1.75,-1.137 3.295,-1.708 4.637,-1.708c1.696,0 2.883,0.779 3.558,2.338l4.15,-2.296l1.142,-0l-1.792,5.958c-0.92,3 -1.383,5.054 -1.383,6.167c0,1.166 0.413,1.75 1.242,1.75c0.529,-0 1.112,-0.279 1.75,-0.838c0.637,-0.566 1.533,-1.429 2.687,-2.583l0,2.342Zm-14.896,1.116c1.359,0 2.634,-1.15 3.825,-3.458c1.209,-2.317 1.813,-4.454 1.813,-6.408c-0,-0.759 -0.171,-1.35 -0.508,-1.771c-0.342,-0.434 -0.796,-0.65 -1.363,-0.65c-1.358,-0 -2.646,1.154 -3.867,3.458c-1.208,2.308 -1.812,4.429 -1.812,6.371c-0,0.729 0.179,1.329 0.529,1.787c0.367,0.45 0.829,0.671 1.383,0.671Zm26.613,-1.116c-1.708,1.695 -3.188,2.95 -4.433,3.762c-1.25,0.8 -2.438,1.2 -3.563,1.2c-1.167,0 -2.117,-0.487 -2.85,-1.462c-0.717,-0.992 -1.075,-2.288 -1.075,-3.888c0,-1.408 0.338,-3.275 1.017,-5.596l0.896,-3.071l-1.567,0.084l0.65,-3.196l1.933,-0.083l1.913,-6.346l5.45,-1.121l-2.075,7.083l2.829,-0.162l-0.671,3.133l-3.154,0.242l-1.363,4.558c-0.462,1.588 -0.691,2.85 -0.691,3.783c-0,0.638 0.154,1.159 0.466,1.567c0.325,0.392 0.742,0.592 1.242,0.592c0.692,-0 1.375,-0.217 2.054,-0.654c0.679,-0.446 1.675,-1.367 2.992,-2.767l-0,2.342Zm15.217,-0c-1.721,1.695 -3.267,2.95 -4.638,3.762c-1.371,0.8 -2.883,1.2 -4.537,1.2c-1.846,0 -3.338,-0.587 -4.475,-1.767c-1.125,-1.183 -1.688,-2.733 -1.688,-4.662c0,-2.875 0.996,-5.471 2.988,-7.792c1.995,-2.333 4.208,-3.5 6.633,-3.5c1.262,0 2.275,0.329 3.033,0.979c0.759,0.65 1.138,1.505 1.138,2.563c-0,2.808 -2.984,5.087 -8.95,6.837c0.541,2.642 1.958,3.967 4.25,3.967c0.896,0 1.75,-0.237 2.566,-0.712c0.813,-0.488 2.038,-1.559 3.68,-3.217l-0,2.342Zm-10.659,-3.763c3.471,-0.979 5.209,-2.783 5.209,-5.412c-0,-1.305 -0.475,-1.955 -1.425,-1.955c-0.896,0 -1.75,0.684 -2.563,2.055c-0.817,1.358 -1.221,3.125 -1.221,5.312Zm30.679,-16.95c0,3.254 -1.2,4.883 -3.6,4.883c-1.166,0 -2.162,-0.354 -2.991,-1.058c0.787,-1.192 1.396,-2.537 1.829,-4.029c1.075,0.667 1.933,1 2.587,1c0.73,-0 1.459,-0.267 2.175,-0.796Zm0.409,20.713c-3.175,3.337 -5.55,5.004 -7.121,5.004c-0.871,-0 -1.6,-0.442 -2.2,-1.321c-0.596,-0.896 -0.892,-2.017 -0.892,-3.358c0,-2.888 0.975,-6.892 2.929,-12.005l5.167,-1.079l0.242,0l-2.034,6.371c-0.841,2.629 -1.262,4.508 -1.262,5.633c-0,0.45 0.096,0.817 0.287,1.1c0.205,0.271 0.455,0.409 0.75,0.409c0.53,-0 1.059,-0.192 1.588,-0.571c0.546,-0.396 1.392,-1.233 2.546,-2.525l-0,2.342Zm6.266,-11.921c0.934,-0.246 1.875,-0.442 2.825,-0.592c0.95,-0.162 1.521,-0.246 1.709,-0.246c0.137,0 0.204,0.054 0.204,0.163c0,0.204 -0.054,0.416 -0.163,0.633c-0.216,0.625 -0.325,1.221 -0.325,1.788c0,0.708 0.409,1.67 1.221,2.891c0.813,1.221 1.221,2.354 1.221,3.396c0,2.075 -0.996,4.075 -2.991,6.004c-1.98,1.925 -4.034,2.888 -6.163,2.888c-0.925,-0 -1.763,-0.246 -2.525,-0.734c-0.758,-0.487 -1.138,-1.008 -1.138,-1.566c0,-0.325 0.371,-0.942 1.117,-1.85c0.763,-0.909 1.304,-1.363 1.629,-1.363c0.434,0 0.821,0.554 1.159,1.667c0.341,1.112 0.925,1.671 1.75,1.671c0.829,-0 1.6,-0.384 2.32,-1.142c0.734,-0.771 1.101,-1.6 1.101,-2.483c-0,-0.854 -0.463,-1.992 -1.384,-3.417c-0.925,-1.425 -1.533,-2.617 -1.833,-3.579c-1.571,2.537 -3.567,5.133 -5.979,7.792l-0.471,-0l-0,-1.834c3.325,-3.537 5.562,-6.9 6.716,-10.087Zm32.796,11.921c-1.708,1.695 -3.187,2.95 -4.437,3.762c-1.246,0.8 -2.433,1.2 -3.559,1.2c-1.166,0 -2.116,-0.487 -2.85,-1.462c-0.716,-0.992 -1.079,-2.288 -1.079,-3.888c0,-1.408 0.342,-3.275 1.017,-5.596l0.896,-3.071l-1.567,0.084l0.654,-3.196l1.929,-0.083l1.913,-6.346l5.454,-1.121l-2.075,7.083l2.829,-0.162l-0.67,3.133l-3.155,0.242l-1.362,4.558c-0.463,1.588 -0.692,2.85 -0.692,3.783c0,0.638 0.154,1.159 0.467,1.567c0.325,0.392 0.737,0.592 1.241,0.592c0.692,-0 1.375,-0.217 2.055,-0.654c0.679,-0.446 1.675,-1.367 2.991,-2.767l0,2.342Zm18.267,-0c-0.692,0.608 -1.362,1.045 -2.013,1.3c-0.649,0.245 -1.166,0.366 -1.545,0.366c-0.975,0 -1.946,-0.379 -2.909,-1.137c-1.954,2.954 -4.191,4.433 -6.716,4.433c-1.571,0 -2.846,-0.587 -3.825,-1.767c-0.975,-1.183 -1.463,-2.75 -1.463,-4.7c0,-3.095 1.1,-5.745 3.296,-7.958c2.196,-2.221 4.821,-3.333 7.875,-3.333c1.15,-0 1.992,0.129 2.521,0.383c0.542,0.246 0.875,0.538 0.996,0.875c0.125,0.342 0.183,0.767 0.183,1.283c0,2.538 -0.692,5.65 -2.075,9.338c0.692,0.637 1.417,0.958 2.179,0.958c0.909,0 2.075,-0.796 3.496,-2.383l0,2.342Zm-6.712,-11.375c-0.205,-0.08 -0.496,-0.121 -0.875,-0.121c-1.763,-0 -3.146,0.921 -4.15,2.766c-0.992,1.846 -1.484,4 -1.484,6.471c0,1.371 0.217,2.434 0.65,3.196c0.434,0.758 1.038,1.138 1.809,1.138c0.966,-0 2.008,-0.888 3.133,-2.667c-1.275,-1.6 -1.913,-3.321 -1.913,-5.167c0,-2.171 0.946,-4.041 2.83,-5.616Zm32.35,11.375c-1.738,1.708 -3.33,2.962 -4.784,3.762c-1.437,0.8 -2.941,1.2 -4.516,1.2c-1.763,0 -3.221,-0.567 -4.371,-1.708c-1.142,-1.154 -1.713,-2.609 -1.713,-4.375c0,-2.888 1.054,-5.554 3.154,-7.996c2.117,-2.454 4.404,-3.679 6.859,-3.679c1.204,-0 2.187,0.337 2.95,1.016c0.758,0.663 1.137,1.534 1.137,2.605c0,0.379 -0.075,0.662 -0.225,0.854c-0.133,0.187 -0.4,0.379 -0.792,0.571l-2.358,1.116c-0.287,0.138 -0.496,0.204 -0.633,0.204c-0.188,0 -0.284,-0.137 -0.284,-0.408c0,-0.108 0.042,-0.458 0.121,-1.058c0.084,-0.609 0.125,-0.984 0.125,-1.117c0,-0.596 -0.129,-1.079 -0.387,-1.446c-0.246,-0.366 -0.579,-0.55 -1,-0.55c-0.988,0 -1.896,0.734 -2.725,2.2c-0.813,1.463 -1.221,3.134 -1.221,5.004c0,1.613 0.388,2.9 1.163,3.867c0.77,0.963 1.799,1.442 3.091,1.442c1.096,-0 2.129,-0.313 3.092,-0.934c0.975,-0.637 2.083,-1.608 3.317,-2.912l-0,2.342Zm18.27,-0c-0.691,0.608 -1.366,1.045 -2.016,1.3c-0.65,0.245 -1.167,0.366 -1.546,0.366c-0.975,0 -1.946,-0.379 -2.909,-1.137c-1.954,2.954 -4.191,4.433 -6.712,4.433c-1.575,0 -2.85,-0.587 -3.825,-1.767c-0.979,-1.183 -1.467,-2.75 -1.467,-4.7c0,-3.095 1.1,-5.745 3.296,-7.958c2.196,-2.221 4.821,-3.333 7.875,-3.333c1.15,-0 1.992,0.129 2.521,0.383c0.542,0.246 0.875,0.538 0.996,0.875c0.125,0.342 0.183,0.767 0.183,1.283c0,2.538 -0.691,5.65 -2.075,9.338c0.692,0.637 1.417,0.958 2.179,0.958c0.909,0 2.075,-0.796 3.5,-2.383l0,2.342Zm-6.716,-11.375c-0.204,-0.08 -0.496,-0.121 -0.875,-0.121c-1.763,-0 -3.146,0.921 -4.15,2.766c-0.988,1.846 -1.484,4 -1.484,6.471c0,1.371 0.217,2.434 0.65,3.196c0.434,0.758 1.038,1.138 1.813,1.138c0.962,-0 2.004,-0.888 3.133,-2.667c-1.275,-1.6 -1.912,-3.321 -1.912,-5.167c-0,-2.171 0.941,-4.041 2.825,-5.616Zm26.691,11.375c-3.129,3.308 -5.816,4.962 -8.054,4.962c-0.908,0 -1.641,-0.317 -2.196,-0.954c-0.558,-0.638 -0.837,-1.492 -0.837,-2.563c-0,-1.454 0.6,-3.67 1.792,-6.654c0.637,-1.6 0.958,-2.616 0.958,-3.054c-0,-0.433 -0.171,-0.65 -0.513,-0.65c-0.187,0 -0.437,0.096 -0.75,0.288c-0.287,0.187 -0.616,0.454 -0.995,0.791c-0.342,0.313 -0.721,0.692 -1.142,1.138c-0.367,0.383 -0.758,0.816 -1.179,1.304l-1.142,1.321c-0.5,0.612 -0.812,1.254 -0.933,1.933c-0.204,1.154 -0.342,2.213 -0.409,3.175c-0.041,0.717 -0.058,1.688 -0.058,2.908l-4.5,1.059c-0.146,-1.829 -0.221,-3.196 -0.221,-4.088c0,-2.183 0.25,-4.254 0.75,-6.208c0.517,-1.95 1.338,-4.15 2.463,-6.592l4.966,-0.954c-1.045,2.808 -1.729,5.017 -2.058,6.633c2.225,-2.483 3.988,-4.2 5.292,-5.15c1.316,-0.962 2.483,-1.441 3.5,-1.441c0.691,-0 1.266,0.262 1.729,0.791c0.462,0.517 0.692,1.167 0.692,1.954c-0,1.3 -0.584,3.446 -1.75,6.43c-0.8,2.046 -1.2,3.375 -1.2,3.987c-0,0.813 0.333,1.221 0.995,1.221c0.992,0 2.592,-1.308 4.8,-3.929l0,2.341Zm16.521,0c-1.408,1.588 -2.804,2.813 -4.191,3.684c-1.384,0.854 -2.617,1.279 -3.7,1.279c-0.517,-0 -1.221,-0.196 -2.117,-0.588c-0.571,2.984 -1.071,6.205 -1.504,9.663c-1.413,0.192 -3.109,0.483 -5.088,0.875c0.434,-3.717 1.188,-8.538 2.259,-14.467c-0.15,-0.258 -0.413,-0.908 -0.792,-1.95l-1.367,1.504l-0.466,0l-0,-1.833l3.866,-4.004c0.746,-3.65 1.35,-6.288 1.809,-7.917c0.462,-1.629 1.108,-3.425 1.933,-5.391c0.829,-1.98 1.35,-3.113 1.567,-3.396c0.216,-0.3 0.741,-0.579 1.566,-0.834c0.842,-0.275 1.738,-0.525 2.688,-0.754c0.95,-0.246 1.458,-0.366 1.525,-0.366c0.516,-0 0.937,0.337 1.262,1.016c0.325,0.667 0.488,1.546 0.488,2.646c-0,1.9 -0.504,3.729 -1.504,5.492c-1.005,1.762 -2.905,3.933 -5.7,6.512l-1.709,8.484c0.667,1.425 1.663,2.137 2.992,2.137c1.9,0 3.958,-1.379 6.183,-4.133l0,2.341Zm-6.833,-11.595c1.587,-1.384 2.825,-2.871 3.721,-4.459c0.908,-1.6 1.362,-3.071 1.362,-4.412c0,-0.571 -0.108,-1.038 -0.325,-1.404c-0.204,-0.367 -0.458,-0.55 -0.771,-0.55c-0.595,-0 -1.208,0.779 -1.833,2.341c-0.608,1.559 -1.329,4.388 -2.154,8.484Zm16.437,-9.117c0,3.254 -1.2,4.883 -3.6,4.883c-1.166,0 -2.162,-0.354 -2.991,-1.058c0.787,-1.192 1.396,-2.538 1.829,-4.029c1.075,0.666 1.933,1 2.587,1c0.73,-0 1.455,-0.267 2.175,-0.796Zm0.409,20.712c-3.175,3.338 -5.55,5.005 -7.121,5.005c-0.871,-0 -1.6,-0.442 -2.2,-1.321c-0.596,-0.896 -0.896,-2.017 -0.896,-3.359c0,-2.887 0.979,-6.891 2.933,-12.004l5.167,-1.079l0.242,0l-2.034,6.371c-0.841,2.629 -1.262,4.508 -1.262,5.633c-0,0.45 0.096,0.817 0.287,1.1c0.205,0.271 0.455,0.409 0.75,0.409c0.53,-0 1.059,-0.192 1.588,-0.571c0.546,-0.396 1.392,-1.233 2.546,-2.525l-0,2.341Zm15.216,0c-3.404,3.338 -6.029,5.005 -7.875,5.005c-0.825,-0 -1.525,-0.346 -2.095,-1.038c-0.567,-0.704 -0.855,-1.575 -0.855,-2.604c0,-1.913 1.025,-4.475 3.075,-7.692c-1.004,0.517 -2.104,0.875 -3.295,1.079c-0.884,1.63 -2.267,3.38 -4.15,5.25l-0.471,0l-0,-1.833c1.058,-1.096 2.016,-2.275 2.871,-3.537c-1.167,-0.517 -1.75,-1.284 -1.75,-2.3c-0,-1.046 0.35,-2.159 1.058,-3.338c0.717,-1.192 1.7,-1.787 2.95,-1.787c1.058,-0 1.587,0.541 1.587,1.625c0,0.854 -0.308,2.075 -0.916,3.662c2.25,-0.241 4.216,-1.966 5.9,-5.166l1.85,-0.084l-1.892,5.209c-0.787,2.2 -1.296,3.695 -1.525,4.495c-0.229,0.788 -0.346,1.488 -0.346,2.096c0,0.571 0.129,1.025 0.388,1.367c0.271,0.337 0.629,0.508 1.075,0.508c0.491,0 0.958,-0.162 1.404,-0.491c0.45,-0.338 1.454,-1.259 3.012,-2.767l0,2.341Zm29.967,0c-1.696,1.655 -3.146,2.896 -4.354,3.721c-1.204,0.829 -2.379,1.242 -3.517,1.242c-0.896,-0 -1.608,-0.304 -2.137,-0.913c-0.517,-0.625 -0.771,-1.458 -0.771,-2.504c-0,-1.466 0.362,-3.325 1.096,-5.575c0.733,-2.25 1.1,-3.621 1.1,-4.108c-0,-0.433 -0.225,-0.65 -0.671,-0.65c-0.138,-0 -0.3,0.046 -0.488,0.142c-0.204,0.091 -0.437,0.229 -0.691,0.404c-0.259,0.192 -0.538,0.421 -0.838,0.691c-0.296,0.271 -0.608,0.584 -0.933,0.938c-0.354,0.354 -0.708,0.738 -1.058,1.158c-0.596,0.709 -0.95,1.296 -1.059,1.771l-0.671,2.909l-1.22,4.804l-5.167,0.933l1.971,-8.379c0.15,-0.613 0.325,-1.508 0.529,-2.688c0.204,-1.179 0.304,-1.883 0.304,-2.116c0,-0.459 -0.154,-0.692 -0.467,-0.692c-0.095,0 -0.229,0.05 -0.408,0.142c-0.2,0.096 -0.433,0.237 -0.692,0.429c-0.295,0.217 -0.616,0.475 -0.954,0.771c-0.366,0.329 -0.758,0.7 -1.179,1.121c-0.45,0.445 -0.908,0.941 -1.383,1.483c-0.654,0.733 -1.059,1.587 -1.221,2.567c-0.217,1.166 -0.367,2.208 -0.45,3.133c-0.092,0.921 -0.15,1.95 -0.163,3.092l-4.516,1.079c-0.109,-1.563 -0.163,-2.863 -0.163,-3.909c0,-2.483 0.259,-4.637 0.775,-6.47c0.513,-1.842 1.354,-3.992 2.521,-6.446l4.925,-0.959c-0.883,2.213 -1.567,4.346 -2.054,6.409c3.646,-4.246 6.442,-6.367 8.379,-6.367c0.708,0 1.275,0.292 1.713,0.875c0.445,0.571 0.67,1.321 0.67,2.258c0,0.434 -0.07,1.234 -0.204,2.4c2.292,-2.291 3.934,-3.783 4.921,-4.475c1.004,-0.708 1.929,-1.058 2.771,-1.058c0.746,0 1.354,0.296 1.829,0.896c0.475,0.596 0.713,1.354 0.713,2.279c-0,1.45 -0.4,3.313 -1.2,5.592c-0.8,2.279 -1.2,3.787 -1.2,4.516c-0,0.763 0.275,1.142 0.833,1.142c0.354,0 0.842,-0.233 1.462,-0.692c0.638,-0.475 1.746,-1.554 3.317,-3.237l0,2.342Zm26.958,-0c-1.408,1.587 -2.808,2.812 -4.191,3.683c-1.384,0.854 -2.617,1.279 -3.7,1.279c-0.517,0 -1.221,-0.196 -2.117,-0.587c-0.571,2.983 -1.071,6.204 -1.508,9.662c-1.409,0.192 -3.104,0.483 -5.084,0.875c0.434,-3.717 1.188,-8.537 2.259,-14.467c-0.15,-0.258 -0.417,-0.908 -0.796,-1.95l-1.363,1.505l-0.466,-0l-0,-1.834l3.866,-4.004c0.746,-3.65 1.346,-6.287 1.809,-7.917c0.462,-1.629 1.104,-3.425 1.933,-5.391c0.829,-1.979 1.35,-3.113 1.567,-3.396c0.216,-0.3 0.737,-0.579 1.566,-0.833c0.842,-0.275 1.738,-0.525 2.688,-0.755c0.946,-0.245 1.454,-0.366 1.525,-0.366c0.512,-0 0.933,0.337 1.258,1.016c0.329,0.667 0.492,1.546 0.492,2.646c-0,1.9 -0.504,3.729 -1.508,5.492c-1.005,1.762 -2.9,3.933 -5.696,6.512l-1.709,8.484c0.663,1.425 1.663,2.137 2.992,2.137c1.896,0 3.958,-1.379 6.183,-4.133l0,2.342Zm-6.833,-11.596c1.583,-1.384 2.825,-2.871 3.721,-4.459c0.908,-1.6 1.362,-3.07 1.362,-4.412c0,-0.571 -0.108,-1.038 -0.325,-1.404c-0.204,-0.367 -0.462,-0.55 -0.77,-0.55c-0.6,-0 -1.209,0.779 -1.834,2.341c-0.608,1.559 -1.329,4.388 -2.154,8.484Zm25.104,11.596c-0.691,0.608 -1.362,1.045 -2.016,1.3c-0.65,0.245 -1.163,0.366 -1.546,0.366c-0.975,0 -1.946,-0.379 -2.909,-1.137c-1.954,2.954 -4.191,4.433 -6.712,4.433c-1.575,0 -2.85,-0.587 -3.825,-1.767c-0.979,-1.183 -1.467,-2.75 -1.467,-4.7c0,-3.095 1.1,-5.745 3.296,-7.958c2.2,-2.221 4.825,-3.333 7.875,-3.333c1.154,-0 1.992,0.129 2.521,0.383c0.546,0.246 0.875,0.538 1,0.875c0.121,0.342 0.183,0.767 0.183,1.283c0,2.538 -0.691,5.65 -2.075,9.338c0.692,0.637 1.417,0.958 2.175,0.958c0.909,0 2.075,-0.796 3.5,-2.383l0,2.342Zm-6.712,-11.375c-0.204,-0.08 -0.496,-0.121 -0.875,-0.121c-1.767,-0 -3.15,0.921 -4.15,2.766c-0.992,1.846 -1.488,4 -1.488,6.471c0,1.371 0.217,2.434 0.65,3.196c0.434,0.758 1.038,1.138 1.813,1.138c0.962,-0 2.008,-0.888 3.133,-2.667c-1.275,-1.6 -1.912,-3.321 -1.912,-5.167c-0,-2.171 0.941,-4.041 2.829,-5.616Zm21.929,11.375c-3.404,3.337 -6.029,5.004 -7.871,5.004c-0.829,-0 -1.529,-0.346 -2.096,-1.038c-0.571,-0.704 -0.854,-1.575 -0.854,-2.604c0,-1.912 1.021,-4.475 3.071,-7.692c-1.004,0.517 -2.104,0.875 -3.296,1.08c-0.883,1.629 -2.267,3.379 -4.15,5.25l-0.471,-0l0,-1.834c1.059,-1.096 2.017,-2.275 2.871,-3.537c-1.167,-0.517 -1.75,-1.284 -1.75,-2.3c0,-1.046 0.354,-2.159 1.058,-3.338c0.717,-1.191 1.7,-1.787 2.95,-1.787c1.059,-0 1.588,0.541 1.588,1.625c-0,0.854 -0.304,2.075 -0.917,3.662c2.25,-0.241 4.217,-1.966 5.9,-5.166l1.85,-0.084l-1.891,5.209c-0.784,2.2 -1.296,3.695 -1.525,4.495c-0.23,0.788 -0.346,1.488 -0.346,2.096c-0,0.571 0.129,1.025 0.387,1.367c0.271,0.337 0.629,0.508 1.079,0.508c0.488,0 0.955,-0.162 1.405,-0.491c0.445,-0.338 1.45,-1.259 3.008,-2.767l-0,2.342Z" style="fill:#132944;fill-opacity:0.77;fill-rule:nonzero;"/><text x="151.426px" y="637.901px" style="font-family:'Arial-ItalicMT', 'Arial', sans-serif;font-style:italic;font-size:29.167px;fill:#373737;">The authorship, authenticity and time of creation of the le with the name</text><path d="M640.038,136.627c3.129,-0 5.662,-2.534 5.662,-5.663l0,-7.787c0,-3.129 -2.533,-5.663 -5.662,-5.663c-3.13,0 -5.663,2.534 -5.663,5.663l0,7.787c0,3.129 2.533,5.663 5.663,5.663Z" style="fill:none;fill-rule:nonzero;stroke:#d1a967;stroke-width:3.85px;stroke-linecap:round;stroke-linejoin:round;"/><path d="M629.204,128.345l0,2.406c0,5.975 4.859,10.831 10.834,10.831c5.97,-0 10.829,-4.856 10.829,-10.831l-0,-2.406" style="fill:none;fill-rule:nonzero;stroke:#d1a967;stroke-width:3.85px;stroke-linecap:round;stroke-linejoin:round;"/><path d="M638.067,123.786c1.275,-0.468 2.662,-0.468 3.937,-0" style="fill:none;fill-rule:nonzero;stroke:#d1a967;stroke-width:3.85px;stroke-linecap:round;stroke-linejoin:round;"/><path d="M638.904,126.787c0.75,-0.198 1.529,-0.198 2.279,0" style="fill:none;fill-rule:nonzero;stroke:#d1a967;stroke-width:3.85px;stroke-linecap:round;stroke-linejoin:round;"/><path d="M640.038,141.582l-0,4.247" style="fill:none;fill-rule:nonzero;stroke:#d1a967;stroke-width:3.85px;stroke-linecap:round;stroke-linejoin:round;"/><path d="M496.558,145.833l0,-28.378l-4.891,0l-0,-5.273l4.891,-0l0,-5.165l8.209,0l-0,5.165l15.387,-0l0,-5.165l8.209,0l-0,5.165l4.891,-0l0,5.273l-4.891,0l-0,28.378l-8.209,0l0,-16.744l-15.387,0l-0,16.744l-8.209,0Zm8.209,-23.594l15.387,0l0,-4.784l-15.387,0l-0,4.784Z" style="fill:#163252;fill-rule:nonzero;"/><path d="M553.008,145.833l-7.937,-14.406l-2.229,-0l-0,14.406l-9.296,0l-0,-38.163l15.604,-0c3.004,-0 5.563,0.525 7.663,1.576c2.137,1.051 3.733,2.501 4.783,4.349c1.054,1.812 1.579,3.842 1.579,6.089c0,2.537 -0.725,4.802 -2.175,6.796c-1.413,1.993 -3.517,3.406 -6.308,4.24l8.808,15.113l-10.492,0Zm-10.166,-20.984l5.762,-0c1.704,-0 2.971,-0.417 3.804,-1.251c0.871,-0.833 1.309,-2.011 1.309,-3.533c-0,-1.45 -0.438,-2.592 -1.309,-3.425c-0.833,-0.834 -2.1,-1.251 -3.804,-1.251l-5.762,0l-0,9.46Zm50.525,7.937c-0,0.725 -0.046,1.48 -0.138,2.265l-17.533,-0c0.121,1.571 0.621,2.779 1.496,3.624c0.904,0.816 2.008,1.223 3.308,1.223c1.933,0 3.275,-0.815 4.029,-2.446l8.246,0c-0.421,1.661 -1.192,3.156 -2.308,4.485c-1.088,1.329 -2.463,2.371 -4.125,3.126c-1.659,0.755 -3.517,1.133 -5.571,1.133c-2.475,-0 -4.683,-0.529 -6.613,-1.586c-1.933,-1.057 -3.445,-2.567 -4.533,-4.53c-1.087,-1.963 -1.629,-4.259 -1.629,-6.886c-0,-2.628 0.529,-4.924 1.583,-6.887c1.088,-1.963 2.6,-3.473 4.534,-4.53c1.933,-1.057 4.15,-1.586 6.658,-1.586c2.446,0 4.621,0.514 6.525,1.541c1.9,1.027 3.379,2.491 4.437,4.394c1.088,1.903 1.634,4.123 1.634,6.66Zm-7.929,-2.039c-0,-1.329 -0.455,-2.386 -1.359,-3.171c-0.908,-0.786 -2.041,-1.178 -3.4,-1.178c-1.296,-0 -2.4,0.377 -3.308,1.132c-0.875,0.756 -1.417,1.828 -1.629,3.217l9.696,0Zm11.379,2.447c-0,-2.628 0.529,-4.924 1.587,-6.887c1.088,-1.963 2.584,-3.473 4.484,-4.53c1.933,-1.057 4.137,-1.586 6.616,-1.586c3.171,0 5.813,0.831 7.925,2.492c2.146,1.661 3.55,4.002 4.217,7.022l-8.246,-0c-0.696,-1.933 -2.042,-2.899 -4.033,-2.899c-1.421,-0 -2.55,0.559 -3.396,1.676c-0.846,1.087 -1.271,2.658 -1.271,4.712c0,2.054 0.425,3.639 1.271,4.756c0.846,1.088 1.975,1.631 3.396,1.631c1.991,0 3.337,-0.966 4.033,-2.899l8.246,0c-0.667,2.96 -2.071,5.286 -4.217,6.977c-2.141,1.691 -4.783,2.537 -7.925,2.537c-2.479,-0 -4.683,-0.529 -6.616,-1.586c-1.9,-1.057 -3.396,-2.567 -4.484,-4.53c-1.058,-1.963 -1.587,-4.259 -1.587,-6.886Zm69.146,-8.427c0.904,-1.389 2.037,-2.477 3.395,-3.262c1.359,-0.815 2.871,-1.223 4.53,-1.223l-0,8.2l-2.13,0c-1.933,0 -3.379,0.423 -4.345,1.268c-0.967,0.816 -1.45,2.266 -1.45,4.35l-0,11.733l-7.75,0l-0,-25.279l7.75,-0l-0,4.213Zm10.995,8.381c0,-2.597 0.484,-4.878 1.45,-6.841c0.996,-1.963 2.342,-3.473 4.03,-4.53c1.691,-1.057 3.579,-1.586 5.666,-1.586c1.659,0 3.171,0.348 4.529,1.042c1.388,0.695 2.475,1.631 3.263,2.809l-0,-11.734l7.746,0l-0,33.525l-7.746,0l-0,-3.624c-0.725,1.208 -1.767,2.175 -3.125,2.899c-1.329,0.725 -2.888,1.088 -4.667,1.088c-2.087,-0 -3.975,-0.529 -5.666,-1.586c-1.688,-1.087 -3.034,-2.613 -4.03,-4.575c-0.966,-1.994 -1.45,-4.289 -1.45,-6.887Zm18.938,0.046c-0,-1.934 -0.546,-3.459 -1.633,-4.576c-1.055,-1.118 -2.355,-1.676 -3.896,-1.676c-1.538,-0 -2.854,0.558 -3.942,1.676c-1.054,1.087 -1.583,2.597 -1.583,4.53c-0,1.933 0.529,3.474 1.583,4.621c1.088,1.118 2.404,1.676 3.942,1.676c1.541,0 2.841,-0.558 3.896,-1.676c1.087,-1.117 1.633,-2.642 1.633,-4.575Zm38.087,-0.408c0,0.725 -0.045,1.48 -0.137,2.265l-17.533,-0c0.12,1.571 0.62,2.779 1.495,3.624c0.909,0.816 2.009,1.223 3.309,1.223c1.933,0 3.275,-0.815 4.033,-2.446l8.242,0c-0.421,1.661 -1.192,3.156 -2.309,4.485c-1.087,1.329 -2.462,2.371 -4.125,3.126c-1.658,0.755 -3.516,1.133 -5.57,1.133c-2.475,-0 -4.68,-0.529 -6.613,-1.586c-1.933,-1.057 -3.446,-2.567 -4.533,-4.53c-1.088,-1.963 -1.629,-4.259 -1.629,-6.886c-0,-2.628 0.529,-4.924 1.583,-6.887c1.087,-1.963 2.6,-3.473 4.533,-4.53c1.934,-1.057 4.15,-1.586 6.659,-1.586c2.445,0 4.62,0.514 6.525,1.541c1.9,1.027 3.383,2.491 4.437,4.394c1.088,1.903 1.633,4.123 1.633,6.66Zm-7.929,-2.039c0,-1.329 -0.454,-2.386 -1.358,-3.171c-0.908,-0.786 -2.042,-1.178 -3.4,-1.178c-1.296,-0 -2.4,0.377 -3.304,1.132c-0.879,0.756 -1.421,1.828 -1.634,3.217l9.696,0Zm20.667,-5.98c0.908,-1.389 2.042,-2.477 3.4,-3.262c1.358,-0.815 2.867,-1.223 4.529,-1.223l0,8.2l-2.129,0c-1.933,0 -3.383,0.423 -4.35,1.268c-0.967,0.816 -1.45,2.266 -1.45,4.35l-0,11.733l-7.746,0l0,-25.279l7.746,-0l-0,4.213Z" style="fill:#d1a967;fill-rule:nonzero;"/><path d="M510.392,285.083c1.637,0.306 2.983,1.125 4.041,2.459c1.055,1.333 1.584,2.861 1.584,4.583c-0,1.555 -0.392,2.93 -1.167,4.125c-0.75,1.167 -1.85,2.083 -3.292,2.75c-1.445,0.667 -3.154,1 -5.125,1l-12.541,-0l-0,-29.083l12,-0c1.971,-0 3.666,0.319 5.083,0.958c1.442,0.639 2.525,1.528 3.25,2.667c0.75,1.138 1.125,2.43 1.125,3.875c0,1.694 -0.458,3.111 -1.375,4.25c-0.892,1.138 -2.083,1.944 -3.583,2.416Zm-10.667,-2.166l5.333,-0c1.388,-0 2.459,-0.306 3.209,-0.917c0.75,-0.639 1.125,-1.542 1.125,-2.708c-0,-1.167 -0.375,-2.07 -1.125,-2.709c-0.75,-0.638 -1.821,-0.958 -3.209,-0.958l-5.333,0l0,7.292Zm5.875,12.333c1.417,0 2.513,-0.333 3.292,-1c0.804,-0.667 1.208,-1.611 1.208,-2.833c0,-1.25 -0.417,-2.222 -1.25,-2.917c-0.833,-0.722 -1.958,-1.083 -3.375,-1.083l-5.75,-0l0,7.833l5.875,0Zm20.9,0.125l9.583,0l0,4.625l-15.416,0l-0,-29.083l5.833,-0l0,24.458Zm26.788,4.917c-2.721,-0 -5.221,-0.639 -7.5,-1.917c-2.275,-1.278 -4.084,-3.042 -5.417,-5.292c-1.333,-2.278 -2,-4.847 -2,-7.708c-0,-2.833 0.667,-5.375 2,-7.625c1.333,-2.278 3.142,-4.055 5.417,-5.333c2.279,-1.278 4.779,-1.917 7.5,-1.917c2.75,0 5.25,0.639 7.5,1.917c2.279,1.278 4.07,3.055 5.375,5.333c1.333,2.25 2,4.792 2,7.625c-0,2.861 -0.667,5.43 -2,7.708c-1.305,2.25 -3.096,4.014 -5.375,5.292c-2.275,1.278 -4.775,1.917 -7.5,1.917Zm-0,-5.209c1.75,0 3.291,-0.388 4.625,-1.166c1.333,-0.806 2.375,-1.945 3.125,-3.417c0.75,-1.472 1.125,-3.18 1.125,-5.125c-0,-1.945 -0.375,-3.639 -1.125,-5.083c-0.75,-1.472 -1.792,-2.597 -3.125,-3.375c-1.334,-0.778 -2.875,-1.167 -4.625,-1.167c-1.75,0 -3.305,0.389 -4.667,1.167c-1.333,0.778 -2.375,1.903 -3.125,3.375c-0.75,1.444 -1.125,3.138 -1.125,5.083c-0,1.945 0.375,3.653 1.125,5.125c0.75,1.472 1.792,2.611 3.125,3.417c1.362,0.778 2.917,1.166 4.667,1.166Zm17.8,-9.666c-0,-2.862 0.637,-5.417 1.916,-7.667c1.304,-2.278 3.071,-4.042 5.292,-5.292c2.25,-1.278 4.762,-1.916 7.542,-1.916c3.25,-0 6.095,0.833 8.541,2.5c2.446,1.666 4.154,3.972 5.125,6.916l-6.708,0c-0.667,-1.388 -1.613,-2.43 -2.833,-3.125c-1.196,-0.694 -2.584,-1.041 -4.167,-1.041c-1.696,-0 -3.208,0.403 -4.542,1.208c-1.304,0.778 -2.333,1.889 -3.083,3.333c-0.721,1.445 -1.083,3.139 -1.083,5.084c-0,1.916 0.362,3.611 1.083,5.083c0.75,1.445 1.779,2.57 3.083,3.375c1.334,0.778 2.846,1.167 4.542,1.167c1.583,-0 2.971,-0.347 4.167,-1.042c1.22,-0.722 2.166,-1.778 2.833,-3.167l6.708,0c-0.971,2.972 -2.679,5.292 -5.125,6.959c-2.416,1.638 -5.262,2.458 -8.541,2.458c-2.78,-0 -5.292,-0.625 -7.542,-1.875c-2.221,-1.278 -3.988,-3.042 -5.292,-5.292c-1.279,-2.25 -1.916,-4.805 -1.916,-7.666Zm49.816,14.583l-10.583,-12.958l-0,12.958l-5.833,-0l-0,-29.083l5.833,-0l-0,13.041l10.583,-13.041l7.042,-0l-12,14.416l12.333,14.667l-7.375,-0Zm9.796,-14.583c0,-2.862 0.638,-5.417 1.917,-7.667c1.304,-2.278 3.066,-4.042 5.291,-5.292c2.25,-1.278 4.763,-1.916 7.542,-1.916c3.25,-0 6.096,0.833 8.542,2.5c2.441,1.666 4.15,3.972 5.125,6.916l-6.709,0c-0.666,-1.388 -1.612,-2.43 -2.833,-3.125c-1.196,-0.694 -2.583,-1.041 -4.167,-1.041c-1.695,-0 -3.208,0.403 -4.541,1.208c-1.309,0.778 -2.334,1.889 -3.084,3.333c-0.725,1.445 -1.083,3.139 -1.083,5.084c0,1.916 0.358,3.611 1.083,5.083c0.75,1.445 1.775,2.57 3.084,3.375c1.333,0.778 2.846,1.167 4.541,1.167c1.584,-0 2.971,-0.347 4.167,-1.042c1.221,-0.722 2.167,-1.778 2.833,-3.167l6.709,0c-0.975,2.972 -2.684,5.292 -5.125,6.959c-2.417,1.638 -5.267,2.458 -8.542,2.458c-2.779,-0 -5.292,-0.625 -7.542,-1.875c-2.225,-1.278 -3.987,-3.042 -5.291,-5.292c-1.279,-2.25 -1.917,-4.805 -1.917,-7.666Zm57.521,-14.5l-0,29.083l-5.833,-0l-0,-12.375l-12.459,-0l0,12.375l-5.833,-0l-0,-29.083l5.833,-0l0,11.958l12.459,-0l-0,-11.958l5.833,-0Zm23.575,23.541l-11.583,0l-1.917,5.542l-6.125,-0l10.458,-29.125l6.792,-0l10.458,29.125l-6.166,-0l-1.917,-5.542Zm-1.583,-4.666l-4.209,-12.167l-4.208,12.167l8.417,-0Zm19.412,-18.875l0,29.083l-5.833,-0l-0,-29.083l5.833,-0Zm30.638,29.083l-5.834,-0l-13.208,-19.958l-0,19.958l-5.833,-0l-0,-29.125l5.833,-0l13.208,20l0,-20l5.834,-0l-0,29.125Z" style="fill:#8994a1;fill-rule:nonzero;"/><path d="M320.72,365c0,-6.867 1.533,-13 4.6,-18.4c3.133,-5.467 7.367,-9.7 12.7,-12.7c5.4,-3.067 11.433,-4.6 18.1,-4.6c7.8,0 14.633,2 20.5,6c5.867,4 9.967,9.533 12.3,16.6l-16.1,0c-1.6,-3.333 -3.867,-5.833 -6.8,-7.5c-2.867,-1.667 -6.2,-2.5 -10,-2.5c-4.067,0 -7.7,0.967 -10.9,2.9c-3.133,1.867 -5.6,4.533 -7.4,8c-1.733,3.467 -2.6,7.533 -2.6,12.2c-0,4.6 0.867,8.667 2.6,12.2c1.8,3.467 4.267,6.167 7.4,8.1c3.2,1.867 6.833,2.8 10.9,2.8c3.8,0 7.133,-0.833 10,-2.5c2.933,-1.733 5.2,-4.267 6.8,-7.6l16.1,0c-2.333,7.133 -6.433,12.7 -12.3,16.7c-5.8,3.933 -12.633,5.9 -20.5,5.9c-6.667,0 -12.7,-1.5 -18.1,-4.5c-5.333,-3.067 -9.567,-7.3 -12.7,-12.7c-3.067,-5.4 -4.6,-11.533 -4.6,-18.4Zm94.158,-23.5l-0,17.5l23.501,0l0,11.1l-23.501,0l-0,18.5l26.501,0l0,11.4l-40.501,0l-0,-69.9l40.501,0l0,11.4l-26.501,0Zm75.222,58.5l-15.4,-27.2l-6.6,0l0,27.2l-14,0l0,-69.8l26.2,0c5.4,0 10,0.967 13.8,2.9c3.8,1.867 6.633,4.433 8.5,7.7c1.933,3.2 2.9,6.8 2.9,10.8c0,4.6 -1.333,8.767 -4,12.5c-2.667,3.667 -6.633,6.2 -11.9,7.6l16.7,28.3l-16.2,0Zm-22,-37.7l11.7,0c3.8,0 6.633,-0.9 8.5,-2.7c1.867,-1.867 2.8,-4.433 2.8,-7.7c0,-3.2 -0.933,-5.667 -2.8,-7.4c-1.867,-1.8 -4.7,-2.7 -8.5,-2.7l-11.7,-0l0,20.5Zm97.563,-32.1l-0,11.3l-18.601,-0l0,58.5l-14,-0l0,-58.5l-18.599,-0l-0,-11.3l51.2,0Zm24.216,0l0,69.8l-14,-0l0,-69.8l14,0Zm56.929,0l0,11.3l-29.1,-0l0,17.9l22.3,0l0,11.1l-22.3,0l0,29.5l-14,-0l0,-69.8l43.1,0Zm23.93,0l-0,69.8l-14,-0l-0,-69.8l14,0Zm10.433,34.8c-0,-6.867 1.533,-13 4.6,-18.4c3.133,-5.467 7.367,-9.7 12.7,-12.7c5.4,-3.067 11.433,-4.6 18.1,-4.6c7.8,-0 14.633,2 20.5,6c5.867,4 9.966,9.533 12.3,16.6l-16.1,-0c-1.6,-3.333 -3.867,-5.833 -6.8,-7.5c-2.867,-1.667 -6.2,-2.5 -10,-2.5c-4.067,-0 -7.7,0.967 -10.9,2.9c-3.133,1.867 -5.6,4.533 -7.4,8c-1.733,3.467 -2.6,7.533 -2.6,12.2c-0,4.6 0.867,8.667 2.6,12.2c1.8,3.467 4.267,6.167 7.4,8.1c3.2,1.867 6.833,2.8 10.9,2.8c3.8,-0 7.133,-0.833 10,-2.5c2.933,-1.733 5.2,-4.267 6.8,-7.6l16.1,-0c-2.333,7.133 -6.433,12.7 -12.3,16.7c-5.8,3.933 -12.633,5.9 -20.5,5.9c-6.667,0 -12.7,-1.5 -18.1,-4.5c-5.333,-3.067 -9.567,-7.3 -12.7,-12.7c-3.067,-5.4 -4.6,-11.533 -4.6,-18.4Zm122.958,21.7l-27.8,0l-4.6,13.3l-14.7,-0l25.1,-69.9l16.3,0l25.1,69.9l-14.8,0l-4.6,-13.3Zm-3.8,-11.2l-10.1,-29.2l-10.104,29.2l20.204,0Zm80.079,-45.3l0,11.3l-18.6,0l0,58.5l-14,0l0,-58.5l-18.6,0l0,-11.3l51.2,0Zm24.217,11.3l0,17.5l23.5,0l0,11.1l-23.5,0l0,18.5l26.5,0l0,11.4l-40.5,0l0,-69.9l40.5,0l0,11.4l-26.5,0Z" style="fill:url(#_Radial3);fill-rule:nonzero;"/><rect x="554.167" y="1445.83" width="145.833" height="166.667" style="fill:none;"/><circle cx="627.083" cy="1518.75" r="72.917" style="fill:#e9b94b;stroke:#012b81;stroke-width:6.34px;"/><g><rect x="595.833" y="1483.33" width="66.667" height="66.667" style="fill:none;"/></g></g><defs><linearGradient id="_Linear1" x1="0" y1="0" x2="1" y2="0" gradientUnits="userSpaceOnUse" gradientTransform="matrix(437.943,-227.839,227.839,437.943,107.891,173.673)"><stop offset="0" style="stop-color:#fbcb7c;stop-opacity:1"/><stop offset="0.47" style="stop-color:#fbcb7c;stop-opacity:1"/><stop offset="1" style="stop-color:#fbcb7c;stop-opacity:0"/><stop offset="1" style="stop-color:#fbcb7c;stop-opacity:0"/></linearGradient><linearGradient id="_Linear2" x1="0" y1="0" x2="1" y2="0" gradientUnits="userSpaceOnUse" gradientTransform="matrix(-437.942,227.838,-227.838,-437.942,1146.94,1507.88)"><stop offset="0" style="stop-color:#fbcb7c;stop-opacity:1"/><stop offset="0.47" style="stop-color:#fbcb7c;stop-opacity:1"/><stop offset="1" style="stop-color:#fbcb7c;stop-opacity:0"/><stop offset="1" style="stop-color:#fbcb7c;stop-opacity:0"/></linearGradient><radialGradient id="_Radial3" cx="0" cy="0" r="1" gradientUnits="userSpaceOnUse" gradientTransform="matrix(-2.55238e-14,66.6667,-310.417,-1.18845e-13,627.083,325)"><stop offset="0" style="stop-color:#faf4c5;stop-opacity:1"/><stop offset="0.51" style="stop-color:#b8a481;stop-opacity:1"/><stop offset="1" style="stop-color:#b8a481;stop-opacity:1"/></radialGradient></defs></svg>