<svg width="154" height="30" viewBox="0 0 154 30" fill="none" xmlns="http://www.w3.org/2000/svg">
<path d="M9.4 0.535999C11.768 0.535999 13.8373 1.00533 15.608 1.944C17.3787 2.88267 18.744 4.20533 19.704 5.912C20.6853 7.59733 21.176 9.54933 21.176 11.768C21.176 13.9653 20.6853 15.9173 19.704 17.624C18.744 19.3307 17.368 20.6533 15.576 21.592C13.8053 22.5307 11.7467 23 9.4 23H0.984V0.535999H9.4ZM9.048 18.264C11.1173 18.264 12.728 17.6987 13.88 16.568C15.032 15.4373 15.608 13.8373 15.608 11.768C15.608 9.69867 15.032 8.088 13.88 6.936C12.728 5.784 11.1173 5.208 9.048 5.208H6.456V18.264H9.048ZM26.442 8.216C25.722 8.216 25.13 8.008 24.666 7.592C24.218 7.16 23.994 6.632 23.994 6.008C23.994 5.368 24.218 4.84 24.666 4.424C25.13 3.992 25.722 3.776 26.442 3.776C27.146 3.776 27.722 3.992 28.17 4.424C28.634 4.84 28.866 5.368 28.866 6.008C28.866 6.632 28.634 7.16 28.17 7.592C27.722 8.008 27.146 8.216 26.442 8.216ZM28.482 9.608V23H24.378V9.608H28.482ZM31.1201 16.304C31.1201 14.912 31.4001 13.696 31.9601 12.656C32.5361 11.616 33.3281 10.816 34.3361 10.256C35.3601 9.696 36.5281 9.416 37.8401 9.416C39.5201 9.416 40.9201 9.856 42.0401 10.736C43.1761 11.616 43.9201 12.856 44.2721 14.456H39.9041C39.5361 13.432 38.8241 12.92 37.7681 12.92C37.0161 12.92 36.4161 13.216 35.9681 13.808C35.5201 14.384 35.2961 15.216 35.2961 16.304C35.2961 17.392 35.5201 18.232 35.9681 18.824C36.4161 19.4 37.0161 19.688 37.7681 19.688C38.8241 19.688 39.5361 19.176 39.9041 18.152H44.2721C43.9201 19.72 43.1761 20.952 42.0401 21.848C40.9041 22.744 39.5041 23.192 37.8401 23.192C36.5281 23.192 35.3601 22.912 34.3361 22.352C33.3281 21.792 32.5361 20.992 31.9601 19.952C31.4001 18.912 31.1201 17.696 31.1201 16.304ZM54.4114 19.52V23H52.3234C50.8354 23 49.6754 22.64 48.8434 21.92C48.0114 21.184 47.5954 19.992 47.5954 18.344V13.016H45.9634V9.608H47.5954V6.344H51.6994V9.608H54.3874V13.016H51.6994V18.392C51.6994 18.792 51.7954 19.08 51.9874 19.256C52.1794 19.432 52.4994 19.52 52.9474 19.52H54.4114ZM56.3614 16.28C56.3614 14.904 56.6174 13.696 57.1294 12.656C57.6574 11.616 58.3694 10.816 59.2654 10.256C60.1614 9.696 61.1614 9.416 62.2654 9.416C63.2094 9.416 64.0334 9.608 64.7374 9.992C65.4574 10.376 66.0094 10.88 66.3934 11.504V9.608H70.4974V23H66.3934V21.104C65.9934 21.728 65.4334 22.232 64.7134 22.616C64.0094 23 63.1854 23.192 62.2414 23.192C61.1534 23.192 60.1614 22.912 59.2654 22.352C58.3694 21.776 57.6574 20.968 57.1294 19.928C56.6174 18.872 56.3614 17.656 56.3614 16.28ZM66.3934 16.304C66.3934 15.28 66.1054 14.472 65.5294 13.88C64.9694 13.288 64.2814 12.992 63.4654 12.992C62.6494 12.992 61.9534 13.288 61.3774 13.88C60.8174 14.456 60.5374 15.256 60.5374 16.28C60.5374 17.304 60.8174 18.12 61.3774 18.728C61.9534 19.32 62.6494 19.616 63.4654 19.616C64.2814 19.616 64.9694 19.32 65.5294 18.728C66.1054 18.136 66.3934 17.328 66.3934 16.304ZM78.0504 11.504C78.4504 10.88 79.0024 10.376 79.7064 9.992C80.4104 9.608 81.2344 9.416 82.1784 9.416C83.2824 9.416 84.2824 9.696 85.1784 10.256C86.0744 10.816 86.7784 11.616 87.2904 12.656C87.8184 13.696 88.0824 14.904 88.0824 16.28C88.0824 17.656 87.8184 18.872 87.2904 19.928C86.7784 20.968 86.0744 21.776 85.1784 22.352C84.2824 22.912 83.2824 23.192 82.1784 23.192C81.2504 23.192 80.4264 23 79.7064 22.616C79.0024 22.232 78.4504 21.736 78.0504 21.128V29.384H73.9464V9.608H78.0504V11.504ZM83.9064 16.28C83.9064 15.256 83.6184 14.456 83.0424 13.88C82.4824 13.288 81.7864 12.992 80.9544 12.992C80.1384 12.992 79.4424 13.288 78.8664 13.88C78.3064 14.472 78.0264 15.28 78.0264 16.304C78.0264 17.328 78.3064 18.136 78.8664 18.728C79.4424 19.32 80.1384 19.616 80.9544 19.616C81.7704 19.616 82.4664 19.32 83.0424 18.728C83.6184 18.12 83.9064 17.304 83.9064 16.28ZM98.9475 9.464C100.484 9.464 101.716 9.976 102.644 11C103.572 12.008 104.036 13.4 104.036 15.176V23H99.9555V15.728C99.9555 14.832 99.7235 14.136 99.2595 13.64C98.7955 13.144 98.1715 12.896 97.3875 12.896C96.6035 12.896 95.9795 13.144 95.5155 13.64C95.0515 14.136 94.8195 14.832 94.8195 15.728V23H90.7155V5.24H94.8195V11.408C95.2355 10.816 95.8035 10.344 96.5235 9.992C97.2435 9.64 98.0515 9.464 98.9475 9.464ZM132.225 9.464C133.793 9.464 135.041 9.976 135.969 11C136.913 12.008 137.385 13.4 137.385 15.176V23H133.305V15.728C133.305 14.832 133.073 14.136 132.609 13.64C132.145 13.144 131.521 12.896 130.737 12.896C129.953 12.896 129.329 13.144 128.865 13.64C128.401 14.136 128.169 14.832 128.169 15.728V23H124.065V9.608H128.169V11.384C128.585 10.792 129.145 10.328 129.849 9.992C130.553 9.64 131.345 9.464 132.225 9.464ZM153.341 16.088C153.341 16.472 153.317 16.872 153.269 17.288H143.981C144.045 18.12 144.309 18.76 144.773 19.208C145.253 19.64 145.837 19.856 146.525 19.856C147.549 19.856 148.261 19.424 148.661 18.56H153.029C152.805 19.44 152.397 20.232 151.805 20.936C151.229 21.64 150.501 22.192 149.621 22.592C148.741 22.992 147.757 23.192 146.669 23.192C145.357 23.192 144.189 22.912 143.165 22.352C142.141 21.792 141.341 20.992 140.765 19.952C140.189 18.912 139.901 17.696 139.901 16.304C139.901 14.912 140.181 13.696 140.741 12.656C141.317 11.616 142.117 10.816 143.141 10.256C144.165 9.696 145.341 9.416 146.669 9.416C147.965 9.416 149.117 9.688 150.125 10.232C151.133 10.776 151.917 11.552 152.477 12.56C153.053 13.568 153.341 14.744 153.341 16.088ZM149.141 15.008C149.141 14.304 148.901 13.744 148.421 13.328C147.941 12.912 147.341 12.704 146.621 12.704C145.933 12.704 145.349 12.904 144.869 13.304C144.405 13.704 144.117 14.272 144.005 15.008H149.141Z" fill="#FD1AA2"/>
</svg>
