<svg width="178" height="48" viewBox="0 0 178 48" fill="none" xmlns="http://www.w3.org/2000/svg">
<path d="M32.4 12.536C34.768 12.536 36.8373 13.0053 38.608 13.944C40.3787 14.8827 41.744 16.2053 42.704 17.912C43.6853 19.5973 44.176 21.5493 44.176 23.768C44.176 25.9653 43.6853 27.9173 42.704 29.624C41.744 31.3307 40.368 32.6533 38.576 33.592C36.8053 34.5307 34.7467 35 32.4 35H23.984V12.536H32.4ZM32.048 30.264C34.1173 30.264 35.728 29.6987 36.88 28.568C38.032 27.4373 38.608 25.8373 38.608 23.768C38.608 21.6987 38.032 20.088 36.88 18.936C35.728 17.784 34.1173 17.208 32.048 17.208H29.456V30.264H32.048ZM49.442 20.216C48.722 20.216 48.13 20.008 47.666 19.592C47.218 19.16 46.994 18.632 46.994 18.008C46.994 17.368 47.218 16.84 47.666 16.424C48.13 15.992 48.722 15.776 49.442 15.776C50.146 15.776 50.722 15.992 51.17 16.424C51.634 16.84 51.866 17.368 51.866 18.008C51.866 18.632 51.634 19.16 51.17 19.592C50.722 20.008 50.146 20.216 49.442 20.216ZM51.482 21.608V35H47.378V21.608H51.482ZM54.1201 28.304C54.1201 26.912 54.4001 25.696 54.9601 24.656C55.5361 23.616 56.3281 22.816 57.3361 22.256C58.3601 21.696 59.5281 21.416 60.8401 21.416C62.5201 21.416 63.9201 21.856 65.0401 22.736C66.1761 23.616 66.9201 24.856 67.2721 26.456H62.9041C62.5361 25.432 61.8241 24.92 60.7681 24.92C60.0161 24.92 59.4161 25.216 58.9681 25.808C58.5201 26.384 58.2961 27.216 58.2961 28.304C58.2961 29.392 58.5201 30.232 58.9681 30.824C59.4161 31.4 60.0161 31.688 60.7681 31.688C61.8241 31.688 62.5361 31.176 62.9041 30.152H67.2721C66.9201 31.72 66.1761 32.952 65.0401 33.848C63.9041 34.744 62.5041 35.192 60.8401 35.192C59.5281 35.192 58.3601 34.912 57.3361 34.352C56.3281 33.792 55.5361 32.992 54.9601 31.952C54.4001 30.912 54.1201 29.696 54.1201 28.304ZM77.4114 31.52V35H75.3234C73.8354 35 72.6754 34.64 71.8434 33.92C71.0114 33.184 70.5954 31.992 70.5954 30.344V25.016H68.9634V21.608H70.5954V18.344H74.6994V21.608H77.3874V25.016H74.6994V30.392C74.6994 30.792 74.7954 31.08 74.9874 31.256C75.1794 31.432 75.4994 31.52 75.9474 31.52H77.4114ZM79.3614 28.28C79.3614 26.904 79.6174 25.696 80.1294 24.656C80.6574 23.616 81.3694 22.816 82.2654 22.256C83.1614 21.696 84.1614 21.416 85.2654 21.416C86.2094 21.416 87.0334 21.608 87.7374 21.992C88.4574 22.376 89.0094 22.88 89.3934 23.504V21.608H93.4974V35H89.3934V33.104C88.9934 33.728 88.4334 34.232 87.7134 34.616C87.0094 35 86.1854 35.192 85.2414 35.192C84.1534 35.192 83.1614 34.912 82.2654 34.352C81.3694 33.776 80.6574 32.968 80.1294 31.928C79.6174 30.872 79.3614 29.656 79.3614 28.28ZM89.3934 28.304C89.3934 27.28 89.1054 26.472 88.5294 25.88C87.9694 25.288 87.2814 24.992 86.4654 24.992C85.6494 24.992 84.9534 25.288 84.3774 25.88C83.8174 26.456 83.5374 27.256 83.5374 28.28C83.5374 29.304 83.8174 30.12 84.3774 30.728C84.9534 31.32 85.6494 31.616 86.4654 31.616C87.2814 31.616 87.9694 31.32 88.5294 30.728C89.1054 30.136 89.3934 29.328 89.3934 28.304ZM101.05 23.504C101.45 22.88 102.002 22.376 102.706 21.992C103.41 21.608 104.234 21.416 105.178 21.416C106.282 21.416 107.282 21.696 108.178 22.256C109.074 22.816 109.778 23.616 110.29 24.656C110.818 25.696 111.082 26.904 111.082 28.28C111.082 29.656 110.818 30.872 110.29 31.928C109.778 32.968 109.074 33.776 108.178 34.352C107.282 34.912 106.282 35.192 105.178 35.192C104.25 35.192 103.426 35 102.706 34.616C102.002 34.232 101.45 33.736 101.05 33.128V41.384H96.9464V21.608H101.05V23.504ZM106.906 28.28C106.906 27.256 106.618 26.456 106.042 25.88C105.482 25.288 104.786 24.992 103.954 24.992C103.138 24.992 102.442 25.288 101.866 25.88C101.306 26.472 101.026 27.28 101.026 28.304C101.026 29.328 101.306 30.136 101.866 30.728C102.442 31.32 103.138 31.616 103.954 31.616C104.77 31.616 105.466 31.32 106.042 30.728C106.618 30.12 106.906 29.304 106.906 28.28ZM121.948 21.464C123.484 21.464 124.716 21.976 125.644 23C126.572 24.008 127.036 25.4 127.036 27.176V35H122.956V27.728C122.956 26.832 122.724 26.136 122.26 25.64C121.796 25.144 121.172 24.896 120.388 24.896C119.604 24.896 118.98 25.144 118.516 25.64C118.052 26.136 117.82 26.832 117.82 27.728V35H113.716V17.24H117.82V23.408C118.236 22.816 118.804 22.344 119.524 21.992C120.244 21.64 121.052 21.464 121.948 21.464ZM155.225 21.464C156.793 21.464 158.041 21.976 158.969 23C159.913 24.008 160.385 25.4 160.385 27.176V35H156.305V27.728C156.305 26.832 156.073 26.136 155.609 25.64C155.145 25.144 154.521 24.896 153.737 24.896C152.953 24.896 152.329 25.144 151.865 25.64C151.401 26.136 151.169 26.832 151.169 27.728V35H147.065V21.608H151.169V23.384C151.585 22.792 152.145 22.328 152.849 21.992C153.553 21.64 154.345 21.464 155.225 21.464ZM176.341 28.088C176.341 28.472 176.317 28.872 176.269 29.288H166.981C167.045 30.12 167.309 30.76 167.773 31.208C168.253 31.64 168.837 31.856 169.525 31.856C170.549 31.856 171.261 31.424 171.661 30.56H176.029C175.805 31.44 175.397 32.232 174.805 32.936C174.229 33.64 173.501 34.192 172.621 34.592C171.741 34.992 170.757 35.192 169.669 35.192C168.357 35.192 167.189 34.912 166.165 34.352C165.141 33.792 164.341 32.992 163.765 31.952C163.189 30.912 162.901 29.696 162.901 28.304C162.901 26.912 163.181 25.696 163.741 24.656C164.317 23.616 165.117 22.816 166.141 22.256C167.165 21.696 168.341 21.416 169.669 21.416C170.965 21.416 172.117 21.688 173.125 22.232C174.133 22.776 174.917 23.552 175.477 24.56C176.053 25.568 176.341 26.744 176.341 28.088ZM172.141 27.008C172.141 26.304 171.901 25.744 171.421 25.328C170.941 24.912 170.341 24.704 169.621 24.704C168.933 24.704 168.349 24.904 167.869 25.304C167.405 25.704 167.117 26.272 167.005 27.008H172.141Z" fill="#FD1AA2"/>
<path d="M21.44 12.536V35H15.968V25.752H7.456V35H1.984V12.536H7.456V21.336H15.968V12.536H21.44Z" fill="#290B33"/>
<path d="M137 29.9165C138.842 29.9165 140.333 28.4248 140.333 26.5832V21.9998C140.333 20.1582 138.842 18.6665 137 18.6665C135.158 18.6665 133.667 20.1582 133.667 21.9998V26.5832C133.667 28.4248 135.158 29.9165 137 29.9165Z" stroke="#FD1AA2" stroke-width="1.5" stroke-linecap="round" stroke-linejoin="round"/>
<path d="M130.625 25.0415V26.4582C130.625 29.9748 133.483 32.8332 137 32.8332C140.517 32.8332 143.375 29.9748 143.375 26.4582V25.0415" stroke="#FD1AA2" stroke-width="1.5" stroke-linecap="round" stroke-linejoin="round"/>
<path d="M135.842 22.3581C136.592 22.0831 137.408 22.0831 138.158 22.3581" stroke="#FD1AA2" stroke-width="1.5" stroke-linecap="round" stroke-linejoin="round"/>
<path d="M136.333 24.1251C136.775 24.0084 137.233 24.0084 137.675 24.1251" stroke="#FD1AA2" stroke-width="1.5" stroke-linecap="round" stroke-linejoin="round"/>
<path d="M137 32.8335V35.3335" stroke="#FD1AA2" stroke-width="1.5" stroke-linecap="round" stroke-linejoin="round"/>
</svg>
