<svg width="20" height="20" viewBox="0 0 20 20" fill="none" xmlns="http://www.w3.org/2000/svg">
<path d="M9.99996 12.9165C11.8416 12.9165 13.3333 11.4248 13.3333 9.58317V4.99984C13.3333 3.15817 11.8416 1.6665 9.99996 1.6665C8.15829 1.6665 6.66663 3.15817 6.66663 4.99984V9.58317C6.66663 11.4248 8.15829 12.9165 9.99996 12.9165Z" stroke="#FD1AA2" stroke-width="1.5" stroke-linecap="round" stroke-linejoin="round"/>
<path d="M3.625 8.0415V9.45817C3.625 12.9748 6.48333 15.8332 10 15.8332C13.5167 15.8332 16.375 12.9748 16.375 9.45817V8.0415" stroke="#FD1AA2" stroke-width="1.5" stroke-linecap="round" stroke-linejoin="round"/>
<path d="M8.84167 5.35811C9.59167 5.08311 10.4083 5.08311 11.1583 5.35811" stroke="#FD1AA2" stroke-width="1.5" stroke-linecap="round" stroke-linejoin="round"/>
<path d="M9.33337 7.1251C9.77504 7.00843 10.2334 7.00843 10.675 7.1251" stroke="#FD1AA2" stroke-width="1.5" stroke-linecap="round" stroke-linejoin="round"/>
<path d="M10 15.8335V18.3335" stroke="#FD1AA2" stroke-width="1.5" stroke-linecap="round" stroke-linejoin="round"/>
</svg>
