<svg width="18" height="22" viewBox="0 0 18 22" fill="none" xmlns="http://www.w3.org/2000/svg">
<path d="M12.5298 0H1.12834C0.81091 0 0.553589 0.257321 0.553589 0.756643V21.6071C0.553589 21.7427 0.81091 22 1.12834 22H16.8717C17.1891 22 17.4464 21.7427 17.4464 21.6071V5.0985C17.4464 4.82507 17.4099 4.73707 17.3455 4.67225L12.7742 0.100964C12.7094 0.0365357 12.6214 0 12.5298 0Z" fill="#E9E9E0"/>
<path d="M12.7322 0.059082V4.71405H17.3871L12.7322 0.059082Z" fill="#D9D7CA"/>
<path d="M5.66623 13.0916C5.52952 13.0916 5.39831 13.0472 5.28634 12.9635C4.87738 12.6567 4.82238 12.3153 4.84831 12.0827C4.91981 11.4432 5.71063 10.7737 7.19956 10.0917C7.79041 8.79687 8.35259 7.20147 8.6877 5.86851C8.29563 5.01522 7.91456 3.90815 8.19231 3.25876C8.28973 3.0313 8.41113 2.85687 8.6378 2.78144C8.72738 2.75158 8.95366 2.71387 9.03695 2.71387C9.23495 2.71387 9.40898 2.96883 9.53234 3.12597C9.64823 3.27369 9.91106 3.5868 9.38581 5.79819C9.91538 6.8919 10.6657 8.00605 11.3847 8.76897C11.8997 8.67587 12.3428 8.62833 12.7039 8.62833C13.3191 8.62833 13.6919 8.77172 13.8439 9.06715C13.9697 9.31151 13.9182 9.59712 13.6907 9.91572C13.4719 10.2218 13.1702 10.3836 12.8186 10.3836C12.3409 10.3836 11.7846 10.0819 11.1643 9.48594C10.0497 9.7189 8.7482 10.1345 7.69613 10.5946C7.3677 11.2915 7.05302 11.8529 6.75995 12.2646C6.35727 12.8284 6.00998 13.0916 5.66623 13.0916ZM6.71202 11.0778C5.87248 11.5496 5.53031 11.9374 5.50556 12.1558C5.50163 12.1919 5.49102 12.287 5.67488 12.4277C5.73341 12.4092 6.0752 12.2532 6.71202 11.0778ZM12.0694 9.33272C12.3896 9.57905 12.4678 9.70358 12.6772 9.70358C12.7691 9.70358 13.0311 9.69965 13.1525 9.53033C13.2111 9.44823 13.2338 9.39558 13.2429 9.3673C13.1946 9.34176 13.1305 9.2899 12.7813 9.2899C12.5829 9.2903 12.3334 9.29894 12.0694 9.33272ZM9.13477 6.74694C8.85388 7.71887 8.48302 8.76819 8.08427 9.71851C8.90534 9.3999 9.79791 9.12176 10.6363 8.92494C10.1059 8.30894 9.57595 7.53972 9.13477 6.74694ZM8.89631 3.42258C8.85781 3.43555 8.37381 4.11283 8.93402 4.68601C9.30684 3.85512 8.9132 3.41708 8.89631 3.42258Z" fill="#CC4B4C"/>
<path d="M16.8717 21.9999H1.12834C0.81091 21.9999 0.553589 21.7425 0.553589 21.4251V15.3213H17.4464V21.4251C17.4464 21.7425 17.1891 21.9999 16.8717 21.9999Z" fill="#CC4B4C"/>
<path d="M4.82986 20.8212H4.18518V16.8628H5.32368C5.49182 16.8628 5.65839 16.8895 5.823 16.9433C5.98761 16.9972 6.13532 17.0777 6.26614 17.1849C6.39697 17.2922 6.50264 17.4222 6.58318 17.5743C6.66372 17.7263 6.70418 17.8972 6.70418 18.0873C6.70418 18.2881 6.67 18.4696 6.60204 18.6326C6.53407 18.7957 6.439 18.9328 6.31722 19.0435C6.19543 19.1543 6.0485 19.2404 5.87682 19.3013C5.70514 19.3622 5.515 19.3924 5.30757 19.3924H4.82947V20.8212H4.82986ZM4.82986 17.3515V18.9198H5.42072C5.49929 18.9198 5.57707 18.9064 5.65447 18.8793C5.73147 18.8526 5.80218 18.8086 5.86661 18.7477C5.93104 18.6868 5.98289 18.602 6.02218 18.4928C6.06147 18.3835 6.08111 18.2484 6.08111 18.0873C6.08111 18.0229 6.07207 17.9483 6.0544 17.8646C6.03632 17.7805 5.99979 17.7 5.94439 17.623C5.88861 17.546 5.81082 17.4815 5.71065 17.4297C5.61047 17.3778 5.47768 17.3519 5.31307 17.3519H4.82986V17.3515Z" fill="white"/>
<path d="M10.6576 18.732C10.6576 19.0577 10.6226 19.3362 10.5527 19.5672C10.4827 19.7982 10.3943 19.9915 10.2867 20.1475C10.1791 20.3034 10.0585 20.426 9.9241 20.5156C9.78974 20.6052 9.6601 20.6719 9.53478 20.7171C9.40946 20.7619 9.29474 20.7906 9.19103 20.8031C9.08731 20.8149 9.01031 20.8212 8.96003 20.8212H7.46167V16.8628H8.65399C8.98713 16.8628 9.27981 16.9158 9.53203 17.0211C9.78424 17.1264 9.99403 17.2674 10.1606 17.4427C10.3272 17.6179 10.4513 17.8178 10.5338 18.0414C10.6163 18.2653 10.6576 18.4955 10.6576 18.732ZM8.74553 20.3486C9.18238 20.3486 9.49746 20.2092 9.69074 19.9298C9.88403 19.6505 9.98067 19.2459 9.98067 18.7159C9.98067 18.5513 9.96103 18.3883 9.92174 18.2272C9.88206 18.0661 9.80624 17.9204 9.69349 17.7895C9.58074 17.6587 9.42753 17.553 9.23424 17.4725C9.04096 17.392 8.79031 17.3515 8.48231 17.3515H8.10635V20.3486H8.74553Z" fill="white"/>
<path d="M12.2474 17.3515V18.5977H13.9018V19.038H12.2474V20.8212H11.5922V16.8628H14.0679V17.3515H12.2474Z" fill="white"/>
</svg>
